<svg width="5001" height="271" viewBox="0 0 5001 271" fill="none" xmlns="http://www.w3.org/2000/svg">
<path d="M5000 14.0176L5000 271L0 271L1.29173e-05 124.958C167 175.816 203.136 121.943 278 124.958C392.66 129.574 334 132.936 614.5 189.778C837.437 234.955 995.884 102.438 1190.5 103.019C1483.63 103.893 1538.1 319.146 1713 203.739C1776.39 161.91 1834.9 126.746 1916.5 116.862C2018.5 104.507 2137 198.899 2258 160.351C2578.76 58.1675 2542 212.87 2637.5 232.998C2705.5 247.329 2778 237.94 2955.5 98.5764C2978.36 80.6287 3098 7.2845 3201.5 20.0422C3520.2 59.3258 3474.7 99.5219 3655 113.49C3846.87 128.355 3846.5 -33.6012 4147 85.5677C4447.5 204.737 4493.2 74.1618 4640 75.0968C4854.6 76.4636 4986.61 8.05981 5000 14.0176Z" fill="#FAF2EF"/>
<path d="M5000 50.1649C4969.55 39.5247 4711 240.491 4341.5 84.8682C4106.88 -13.9468 3888.62 152.062 3634 146.397C3498.68 143.387 3289 25.1525 3244 9.27901C3199 -6.59447 3126.58 -8.28284 2990.38 84.8682C2786.62 224.219 2703.4 233.608 2625.34 219.277C2515.71 199.152 2557.9 44.4626 2189.71 146.637C2050.81 185.181 1914.78 90.798 1797.69 103.152C1711.66 112.229 1675.97 228.854 1604.5 203.738C1342 111.494 1115.48 241.83 921 128.447C726 14.7629 590.629 262.926 349 150.386C174.5 69.112 43 140.913 3.00001 163.35" stroke="#78BDC4" stroke-width="2"/>
</svg>
