<svg width="5000" height="88" viewBox="0 0 5000 88" fill="none" xmlns="http://www.w3.org/2000/svg">
<g clip-path="url(#clip0)">
<path d="M4999.5 4.57764e-05L4999.5 49.1015C4999.5 49.1015 4729.3 19.2385 4387.06 19.4004C4172.95 19.5017 3930.51 48.9411 3727.63 49.1017C3444.51 49.3258 3423.16 19.4004 3270.67 19.4004C3166.85 19.4004 3143.76 34.4892 2955.7 49.1017C2809.22 60.4842 2826.26 60.4843 2642.73 60.4843C2545.24 60.4843 2340.27 61.4739 2216.28 49.1017C2092.29 36.7295 1949.01 33.8264 1890.31 40.1937C1839.2 45.7378 1842.82 34.3753 1652.33 60.4843C1461.85 86.5933 1453.99 23.2144 1084.89 23.3589C853.305 23.4496 609.64 65.2942 406.959 65.3444C170.948 65.4029 2.34916e-06 40.1937 2.34916e-06 40.1937L5.8989e-06 0.000513399L4999.5 4.57764e-05Z" fill="#FAF2EF"/>
<path d="M5000 23.3587C5000 23.3587 4757.65 68.9606 4668.03 68.8885C4408.75 68.68 4311.88 23.5673 4052.59 23.3587C3853.25 23.1984 3817.98 69.0489 3618.64 68.8885C3498.76 68.7921 3422.16 64.9294 3288.67 53.1607C3144.18 40.4215 3092.36 5.82921 2917.21 54.5368C2723.23 108.479 2455.25 79.2816 2320.77 54.5368C2186.28 29.7919 2072.79 4.05791 1909.81 54.5367C1769.46 98.0062 1641.61 62.736 1585.34 54.5367C1510.35 43.6092 1451.48 21.4024 1208.38 20.8843C1019.58 20.4819 757.763 70.685 552.445 70.3732C373.968 70.1022 274.1 37.8551 162.984 37.7105C71.5552 37.5916 0.000135756 53.547 0.000135756 53.547" stroke="#78BDC4" stroke-width="2"/>
</g>
<defs>
<clipPath id="clip0">
<rect y="-0.000488281" width="5000" height="88" fill="white"/>
</clipPath>
</defs>
</svg>
