<svg width="5007" height="241" viewBox="0 0 5007 241" fill="none" xmlns="http://www.w3.org/2000/svg">
<path d="M2070.5 191.399C1959 244.51 1830 199.75 1781.5 177.871C1733 155.992 1708.02 211.827 1655 224.5C1525.6 255.428 1467.8 143.596 1336 124.5C1204.2 105.404 1072.3 196.967 940.5 177.871C755.587 151.08 708.5 -48 508 73.601C406.443 135.194 318.048 179.031 200.5 162C119.661 150.288 0 0 0 0H5002.5C5002.5 0 4917.54 73.9855 4787.5 86C4621.33 101.352 4566.67 188.148 4400.5 203.5C4242.34 218.112 4006 70.0761 3839 107.493C3672 144.91 3608.08 175.595 3465.5 142C3361.98 117.608 3307.5 79.4583 3272.5 99.5C3237.5 119.542 3110.6 226.973 3029 236.994C2927 249.52 2970.13 94.7143 2895.5 127.265C2586.5 262.046 2477 34.572 2409 20.0417C2341 5.51143 2275.24 93.8775 2070.5 191.399Z" fill="#FAF2EF"/>
<path d="M2 141C2 141 121 189.951 270 148.63C419 107.309 487.448 -28.0909 592 79.5C637.979 126.816 719.237 160.454 809 170.5C912.864 182.124 1070.09 111.828 1159.5 114.5C1362.97 120.58 1400.5 213.87 1582.5 170.5C1715.97 138.695 1908.51 270.426 2017.93 206.931C2229.29 84.2756 2283.1 7.5156 2359.5 22.0459C2435.91 36.5762 2558.95 264.05 2906.14 129.269C2989.99 96.7184 2941.53 251.524 3056.14 238.998C3143.15 229.488 3254.5 148.5 3305 93C3355.5 37.5 3442.96 151.743 3545.5 108.5C3668.5 56.6267 3727.78 156.645 3853 147C4018.47 134.255 4114.69 191.47 4280.5 170C4443.26 148.924 4564.59 46.4116 4681 42.6323C4867.89 36.5646 5005.5 147 5005.5 147" stroke="#78BDC4" stroke-width="2"/>
</svg>
