<svg width="505" height="543" viewBox="0 0 505 543" fill="none" xmlns="http://www.w3.org/2000/svg">
<path d="M39.6168 335.793C2.20676 356.308 0.999999 415.038 20.3084 429.117C39.6168 443.196 73.4066 420.267 92.715 429.117C112.023 437.967 89.0947 470.148 125.298 471.757C161.501 473.366 114.232 507.535 125.298 525.257C143.02 553.639 210.979 525.257 210.979 525.257C210.979 525.257 287.975 495.049 322.002 457.275C354.07 421.676 329.128 353.087 376.71 347.459C404.815 344.134 418.693 389.267 443.485 375.617C466.054 363.189 424.981 276.661 461.184 312.06C497.387 347.459 504.722 203.955 461.184 168.856C426.084 140.559 387.342 151.489 345.736 168.856C289.246 192.435 254.021 295.969 254.021 295.969C254.021 295.969 203.738 207.07 171.155 239.653C138.573 272.236 128.114 191.784 112.023 239.653C95.9331 287.522 77.0269 315.278 39.6168 335.793Z" fill="#E2D8D5" fill-opacity="0.4"/>
<path d="M493.859 73.2774C498.907 73.2774 503 69.189 503 64.1457C503 59.1024 498.907 55.0139 493.859 55.0139C488.81 55.0139 484.717 59.1024 484.717 64.1457C484.717 69.189 488.81 73.2774 493.859 73.2774Z" stroke="#F7444F" stroke-width="3" stroke-miterlimit="10"/>
<path d="M352.172 32.0877C355.949 32.0877 359.01 29.026 359.01 25.2493C359.01 21.4725 355.949 18.4109 352.172 18.4109C348.395 18.4109 345.333 21.4725 345.333 25.2493C345.333 29.026 348.395 32.0877 352.172 32.0877Z" stroke="#C4C4C4" stroke-width="2" stroke-miterlimit="10"/>
<path d="M412 0.774872H62V494.775H412V0.774872Z" stroke="#D3E3E3" stroke-width="10" stroke-miterlimit="10"/>
<path d="M408 3.77487H58V497.775H408V3.77487Z" stroke="#78BDC4" stroke-width="2" stroke-miterlimit="10"/>
<path d="M144.306 64.8573C144.524 65.4654 144.938 66.0998 144.358 66.8479C143.702 67.7509 142.88 67.3092 142.023 67.3586C141.302 67.3437 140.564 67.5743 139.707 67.6237C137.526 67.8246 136.781 67.228 136.965 65.5999C137.191 64.308 138.16 63.6127 140.4 63.5024C142.114 63.4037 143.462 63.8339 144.306 64.8573Z" fill="#C4C4C4"/>
<path d="M101.434 114.053C101.653 114.661 102.066 115.296 101.487 116.044C100.83 116.947 100.009 116.505 99.1518 116.554C98.4307 116.54 97.6918 116.77 96.8348 116.82C94.6539 117.02 93.9095 116.424 94.0936 114.796C94.3189 113.504 95.2885 112.809 97.5285 112.698C99.2425 112.6 100.59 113.03 101.434 114.053Z" fill="#C4C4C4"/>
<path d="M176.305 90.7962C174.523 91.5504 172.693 91.6136 172.249 90.9311C171.761 90.1803 172.53 89.1021 173.859 88.4731C175.436 87.8156 176.901 88.0143 177.42 89.0181C177.895 89.9538 177.02 90.4575 176.305 90.7962Z" fill="#C4C4C4"/>
<path d="M115.045 90.1707C115.104 90.261 115.533 90.6483 115.633 91.0734C115.757 92.0778 115.803 93.2365 114.118 93.9141C112.568 94.5278 111.284 94.1896 110.424 93.4149C109.252 92.4333 110.709 89.5023 112.724 88.787C113.732 88.4293 114.297 88.7527 115.045 90.1707Z" fill="#C4C4C4"/>
<path d="M160.774 86.6431C162.82 85.6749 164.13 85.7693 164.841 86.862C165.611 88.0457 164.917 89.4461 163.025 90.1032C161.875 90.5285 160.279 91.6409 159.254 90.3396C158.152 89.194 158.924 87.6379 160.774 86.6431Z" fill="#C4C4C4"/>
<path d="M164.399 76.2099C165.108 77.2972 164.416 78.6907 162.784 79.4615C161.697 79.9754 159.18 79.3871 158.649 78.5716C158.118 77.7562 158.963 76.053 160.323 75.4106C161.954 74.6398 163.573 74.9414 164.399 76.2099Z" fill="#C4C4C4"/>
<path d="M152.818 66.8024C155.274 65.64 157.308 65.7495 158.138 67.0248C158.79 68.0268 158.113 69.181 156.749 69.8268C155.384 70.4726 151.18 70.3183 151.174 69.4869C150.854 68.4468 151.59 67.3836 152.818 66.8024Z" fill="#C4C4C4"/>
<path d="M126.206 116.901C128.382 115.872 130.624 115.762 131.019 116.642C131.592 117.795 131.195 119.644 130.107 120.158C128.474 120.93 126.015 120.432 125.247 119.252C124.656 118.345 125.117 117.415 126.206 116.901Z" fill="#C4C4C4"/>
<path d="M77.2919 74.8406C76.4644 73.5702 77.0624 72.5754 78.6954 71.8034C80.1153 71.2508 82.5937 71.5034 83.1256 72.3201C83.7166 73.2276 82.4025 75.0357 80.6334 75.872C79.0595 76.7347 78.2966 76.3833 77.2919 74.8406Z" fill="#C4C4C4"/>
<path d="M135.919 42.7493C134.885 43.3588 133.828 43.3819 132.907 43.3403C131.457 43.3103 131.119 42.5147 131.113 41.6809C131.031 41.0032 131.869 40.3671 132.748 40.0699C133.354 39.9021 134.02 39.8258 134.703 39.502C135.523 39.1134 136.26 38.0471 136.949 38.5571C137.894 39.185 137.941 40.3576 137.732 41.4123C137.637 41.8159 136.543 42.3341 135.919 42.7493Z" fill="#C4C4C4"/>
<path d="M107.324 46.057C108.689 45.4104 111.39 45.4438 111.864 46.1734C112.475 46.8385 111.079 48.8117 109.518 49.4317C107.82 50.1165 105.98 50.0334 105.524 49.0566C104.931 48.1446 105.822 46.7683 107.324 46.057Z" fill="#C4C4C4"/>
<path d="M160.358 48.1942C159.884 47.4659 160.715 46.0011 162.019 45.2646C163.324 44.5282 166.335 44.7701 166.928 45.6805C167.402 46.4088 166.434 47.9381 165.207 48.519C163.298 49.4226 161.069 49.2867 160.358 48.1942Z" fill="#C4C4C4"/>
<path d="M128.777 62.9431C127.685 63.4599 126.57 63.3919 125.532 63.1681C124.357 63.009 124.47 62.3595 124.387 61.6835C124.305 61.0075 124.732 60.5668 125.551 60.1792C127.325 59.3393 129.888 59.4373 130.872 60.4016C131.542 61.1572 130.806 62.2208 128.777 62.9431Z" fill="#C4C4C4"/>
<path d="M74.6316 84.5432C75.8847 83.9323 77.0272 83.7189 78.1424 83.7477C79.7872 83.7474 79.9838 84.3385 78.9273 85.5406C78.3431 86.0543 77.9541 86.5875 77.3699 87.1013C76.4239 87.9059 75.5066 89.04 74.1676 88.6623C73.4701 88.4298 72.2989 88.3138 72.4081 87.3446C72.4053 86.2009 73.0441 85.2025 74.6316 84.5432Z" fill="#C4C4C4"/>
<path d="M102.491 72.5836C103.084 73.4967 101.747 75.5634 100.107 76.3402C98.6039 77.0523 97.036 76.8396 96.4425 75.9265C95.9084 75.1048 96.9546 73.4149 98.4397 72.9502C99.9248 72.4854 101.428 71.7734 102.491 72.5836Z" fill="#C4C4C4"/>
<path d="M191.892 84.4146C194.334 83.4969 196.038 83.6447 196.536 84.9611C197.212 86.5513 195.08 86.8449 193.714 87.4921C191.605 88.3717 190.625 88.2388 190.05 87.0785C189.534 86.0095 190.193 85.1 191.892 84.4146Z" fill="#C4C4C4"/>
<path d="M85.1152 103.283C85.8765 103.633 86.6968 104.074 87.3223 104.489C88.4375 105.382 88.0356 106.401 86.9134 107.404C85.7913 108.408 84.4278 108.223 83.3359 107.91C81.9902 107.481 82.0794 106.255 83.2427 105.587C84.406 104.92 83.4444 103.717 85.1152 103.283Z" fill="#C4C4C4"/>
<path d="M147.947 57.9189C147.414 57.0994 148.109 55.6988 149.473 55.0532C150.973 54.343 153.398 54.5055 153.931 55.325C154.405 56.0536 153.438 57.5833 152.074 58.2289C150.71 58.8745 148.617 58.674 147.947 57.9189Z" fill="#C4C4C4"/>
<path d="M91.9265 49.6748C93.7052 48.8314 96.1556 48.7467 96.6904 49.5704C97.1064 50.211 96.0173 51.5654 94.5122 52.279C92.7335 53.1225 90.5568 53.0774 90.0993 52.0973C89.5825 51.0257 90.8913 50.2854 91.9265 49.6748Z" fill="#C4C4C4"/>
<path d="M87.5138 94.2411C87.8102 94.6967 87.8515 95.0347 87.347 95.6311C86.6288 96.4479 85.5963 97.0558 84.3267 97.2993C82.7249 97.5808 80.7441 96.7307 80.7565 95.6521C80.7689 94.5736 82.2701 93.8629 84.3227 93.7256C86.5117 93.5236 87.0989 93.6032 87.5138 94.2411Z" fill="#C4C4C4"/>
<path d="M108.101 85.3787C106.658 86.1813 105.601 86.2044 104.812 85.2657C104.083 84.4181 104.933 82.7033 106.298 82.0566C107.468 81.3834 110.169 81.4167 110.584 82.0553C110.981 82.941 109.817 84.4468 108.101 85.3787Z" fill="#C4C4C4"/>
<path d="M91.8202 66.1618C91.3462 65.4331 92.3136 63.9031 93.4821 63.2308C94.6507 62.5586 97.7223 62.8917 97.7871 63.8141C97.9111 64.8275 97.448 65.7615 96.0245 66.3161C94.1917 67.0644 92.3535 66.9815 91.8202 66.1618Z" fill="#C4C4C4"/>
<path d="M128.276 90.5295C126.954 89.8584 125.708 89.0335 125.545 87.6981C125.322 86.2727 126.498 85.3646 128.379 85.5366C131.094 85.9035 131.128 88.1242 128.276 90.5295Z" fill="#C4C4C4"/>
<path d="M165.374 58.5899C164.763 57.9251 165.594 56.4582 166.9 55.7206C168.343 54.9184 170.651 54.8987 171.185 55.7193C171.778 56.6311 171.314 57.566 170.068 58.3947C168.762 59.1323 165.985 59.2547 165.374 58.5899Z" fill="#C4C4C4"/>
<path d="M174.004 66.9502C174.069 67.8719 174.329 68.8201 172.693 69.5944C171.466 70.1751 168.573 70.1153 168.099 69.3872C167.626 68.6591 168.593 67.1302 169.82 66.5495C171.515 65.8662 173.412 66.0401 174.004 66.9502Z" fill="#C4C4C4"/>
<path d="M128.698 97.0194C130.418 96.0836 131.495 95.8122 132.519 96.2853C133.286 96.6401 133.25 97.1364 132.94 97.7626C132.535 98.7935 131.755 99.5229 130.422 99.676C129.089 99.8291 126.994 100.463 126.536 99.4825C125.96 98.3182 127.936 97.5007 128.698 97.0194Z" fill="#C4C4C4"/>
<path d="M139.124 76.2456C140.407 75.7577 143.002 76.1915 143.397 77.0718C143.87 77.7972 142.013 79.861 140.475 80.2318C138.802 80.6668 138.347 79.6958 137.816 78.8798C137.497 77.8445 138.036 76.7598 139.124 76.2456Z" fill="#C4C4C4"/>
<path d="M147.818 86.8095C148.351 87.628 148.024 88.4961 147.052 89.1939C145.672 90.0851 142.78 90.0253 142.188 89.1158C141.537 88.1153 142.118 87.3646 143.422 86.6289C144.998 85.7642 147.031 85.8735 147.818 86.8095Z" fill="#C4C4C4"/>
<path d="M182.306 56.3266C183.398 55.8098 187.289 55.7554 187.645 56.3021C188.178 57.1222 187.792 57.9008 186.487 58.6379C184.772 59.5688 182.014 59.4443 181.362 58.442C180.947 57.8042 181.41 56.8699 182.306 56.3266Z" fill="#C4C4C4"/>
<path d="M105.458 39.0215C105.44 39.2681 105.422 39.5147 105.268 39.8259C104.514 41.1351 102.137 42.1412 100.59 41.6826C99.2975 41.3415 98.8236 40.6132 99.3044 39.4331C99.7673 38.4996 100.84 38.2299 101.955 38.2979C103.206 38.3013 104.593 38.2401 105.458 39.0215Z" fill="#C4C4C4"/>
<path d="M124.075 74.9836C125.547 74.5244 126.772 74.7722 127.844 75.3284C128.856 75.7944 129.522 76.5425 129.044 77.7121C128.737 78.3289 128.06 78.6487 127.206 78.6978C125.963 78.6944 122.925 77.2965 122.978 76.5632C122.819 76.0481 123.185 75.5215 124.075 74.9836Z" fill="#C4C4C4"/>
<path d="M73.1997 65.0602C72.6684 64.2449 73.1833 62.5798 74.2706 62.066C75.3579 61.5522 77.3074 61.8159 77.9746 62.567C78.7008 63.4087 78.1448 64.7378 76.8446 65.4706C75.7573 65.9844 73.8668 65.8113 73.1997 65.0602Z" fill="#C4C4C4"/>
<path d="M146.749 109.526C148.113 108.88 149.305 108.793 149.957 109.795C150.55 110.706 149.582 112.236 147.809 113.075C146.581 113.657 145.466 113.589 144.796 112.833C144.067 111.987 145.112 110.301 146.749 109.526Z" fill="#C4C4C4"/>
<path d="M96.2571 83.3487C96.6719 83.9864 96.2447 84.4269 95.4853 84.9055C93.9073 85.7716 90.936 85.8674 90.4619 85.1386C89.9286 84.3187 90.3917 83.3847 91.6196 82.8035C93.2569 82.0285 95.546 82.2556 96.2571 83.3487Z" fill="#C4C4C4"/>
<path d="M112.803 107.446C111.803 106.731 112.501 106.163 113.591 105.648C115.361 104.811 117.467 104.765 117.727 105.711C117.987 106.657 117.584 107.679 116.282 108.414C114.784 109.122 113.69 108.808 112.803 107.446Z" fill="#C4C4C4"/>
<path d="M185.872 65.387C186.962 64.871 188.213 64.8744 188.805 65.7843C189.397 66.6942 189.13 67.6537 187.766 68.2987C186.462 69.0348 184.43 68.9254 184.015 68.2885C183.542 67.5606 184.236 66.1611 185.872 65.387Z" fill="#C4C4C4"/>
<path d="M118.179 68.5432C118.25 70.3036 119.022 71.4923 116.757 72.6856C115.526 73.269 114.527 73.3837 113.505 72.9115C112.738 72.5573 112.656 71.8791 113.042 71.0978C113.488 70.4079 114.113 69.9924 114.957 70.1903C116.508 70.6509 116.853 69.5305 118.179 68.5432Z" fill="#C4C4C4"/>
<path d="M120.254 36.5602C122.223 35.7476 124.256 35.857 124.576 36.8966C124.913 37.6895 124.528 38.4675 123.377 38.8928C121.877 39.6028 119.589 39.3759 118.996 38.4654C118.463 37.646 119.104 36.9855 120.254 36.5602Z" fill="#C4C4C4"/>
<path d="M137.779 50.2382C138.869 49.7221 140.765 49.896 141.18 50.5329C141.594 51.1698 140.823 52.7248 139.733 53.2408C138.369 53.8859 136.609 53.6475 136.076 52.8286C135.662 52.1917 136.552 50.8187 137.779 50.2382Z" fill="#C4C4C4"/>
<path d="M180.896 79.2576C182.124 78.6766 183.885 78.9151 184.359 79.6436C184.833 80.3722 183.611 81.7843 182.187 82.3388C180.764 82.8934 179.727 82.6698 179.33 81.7856C178.874 80.8104 179.787 80.0208 180.896 79.2576Z" fill="#C4C4C4"/>
<path d="M144 100.986C142.367 100.93 141.489 100.399 141.85 99.0476C142.133 97.8505 143.395 97.6092 144.58 97.5223C146.23 97.3336 146.819 98.2368 147.408 99.1401C147.82 99.7724 147.844 100.352 147.012 100.981C145.715 101.712 144.666 101.734 144 100.986C144.33 100.948 144.584 101.064 145.049 100.963C145.574 100.951 146.116 100.695 146.211 100.296C146.305 99.897 146.07 99.5357 145.486 99.4569C144.903 99.378 144.478 99.8148 144.325 100.123C144.036 100.496 144.018 100.741 144 100.986Z" fill="#C4C4C4"/>
<path d="M120.96 52.9076C120.191 51.7264 120.612 50.4578 121.838 49.878C123.141 49.143 124.84 49.2902 125.432 50.1988C126.023 51.1074 125.348 52.2587 123.79 52.8764C122.565 53.4562 121.511 53.4792 120.96 52.9076Z" fill="#C4C4C4"/>
<path d="M152.422 39.438C152.755 39.3998 153.576 39.0105 154.301 39.0255C155.36 39.0023 156.46 39.3186 156.466 40.1538C156.471 40.989 155.513 41.4432 154.419 41.9622C153.051 42.611 152.123 41.734 150.773 42.1349C150.166 42.3029 150.024 41.5325 150.256 41.0634C150.506 40.3463 151.131 39.9304 152.422 39.438Z" fill="#C4C4C4"/>
<path d="M97.0703 96.0424C97.2006 95.1531 96.6934 94.9196 95.779 94.8785C95.254 94.8899 94.8057 94.7469 95.1718 94.2192C95.3843 94.0006 95.7325 93.7179 96.0039 93.5897C96.6825 93.2692 101.142 94.1195 101.301 94.6356C101.501 95.4872 100.669 96.1167 99.7778 96.6558C98.9456 97.2853 98.0902 97.3345 97.4062 96.8298C97.2293 96.5586 97.1882 96.2232 97.0703 96.0424Z" fill="#C4C4C4"/>
<path d="M110.377 60.4993C111.192 60.1137 113.592 60.5209 114.082 61.0005C114.732 61.9975 113.998 63.0554 112.231 63.8907C110.735 64.5976 110.05 64.0916 109.577 63.3665C108.851 62.5244 109.425 60.9491 110.377 60.4993Z" fill="#C4C4C4"/>
<path d="M106.6 102.888C107.151 103.461 106.32 104.927 105.092 105.508C104 106.025 101.77 105.889 101.296 105.16C100.822 104.431 101.208 103.652 102.24 103.045C103.545 102.308 106.125 102.159 106.6 102.888Z" fill="#C4C4C4"/>
<path d="M192.097 74.7034C193.944 74.5408 196.039 73.6698 196.439 75.3728C196.639 76.2243 195.789 77.0988 194.391 77.4044C192.798 77.6837 192.249 77.1149 192.097 74.7034Z" fill="#C4C4C4"/>
<path d="M89.4439 128.368C90.3822 128.25 90.9959 128.638 91.2529 129.431C91.6385 130.621 90.9405 131.856 89.7436 131.929C88.5788 132.101 87.982 131.389 87.7249 130.596C87.4679 129.802 88.1981 128.666 89.4439 128.368Z" fill="#C4C4C4"/>
<path d="M124.52 131.064C124.872 132.152 123.691 134.139 122.593 134.508C122.254 134.589 121.77 134.598 121.367 134.482C119.933 134.186 119.499 133.224 119.89 131.426C120.232 129.853 121.25 128.863 122.621 128.962C123.911 129.186 123.924 130.354 124.52 131.064Z" fill="#C4C4C4"/>
<path d="M184.39 121.169C185.104 121.105 185.899 120.915 186.547 121.403C187.34 121.963 186.642 122.452 186.462 123.031C186.25 123.511 186.298 124.035 186.118 124.614C185.742 126.098 184.898 126.514 183.196 126.171C181.867 125.846 181.382 125.105 181.872 123.594C182.199 122.337 183.028 121.495 184.39 121.169Z" fill="#C4C4C4"/>
<path d="M225.36 100.421C226.185 100.33 227.253 99.8608 227.639 101.051C228.362 102.907 227.712 104.666 226.158 105.144C224.831 105.569 223.668 104.992 223.282 103.802C222.768 102.216 223.58 100.954 225.36 100.421Z" fill="#C4C4C4"/>
<path d="M137.064 127.401C135.882 127.898 134.96 127.691 134.542 126.401C134.091 125.012 134.824 123.125 135.957 122.854C136.524 122.719 139.368 124.711 139.529 125.207C139.673 126.028 138.651 127.021 137.064 127.401Z" fill="#C4C4C4"/>
<path d="M232.235 111.668C232.667 113.374 232.099 115.001 230.97 115.271C229.729 115.568 228.474 114.697 228.057 113.413C227.69 111.903 228.498 110.645 230.111 110.366C231.642 110.213 232.043 111.075 232.235 111.668Z" fill="#C4C4C4"/>
<path d="M202.927 141.981C203.041 141.953 203.578 141.717 204.067 141.707C205.19 141.761 206.459 141.888 206.733 143.115C206.975 144.243 206.257 145.061 205.182 145.535C203.797 146.19 201.016 144.809 200.791 143.355C200.679 142.627 201.184 142.29 202.927 141.981Z" fill="#C4C4C4"/>
<path d="M214.877 111.891C214.396 110.407 214.849 109.551 216.206 109.227C217.676 108.875 218.982 109.522 219.173 110.863C219.317 111.682 220.073 112.887 218.409 113.392C216.858 113.87 215.326 113.277 214.877 111.891Z" fill="#C4C4C4"/>
<path d="M203.956 108.703C205.32 108.376 206.632 109.027 207.019 110.221C207.277 111.018 205.959 112.62 204.937 112.865C203.914 113.109 202.31 112.314 201.988 111.319C201.633 110.224 202.366 109.084 203.956 108.703Z" fill="#C4C4C4"/>
<path d="M193.17 117.166C192.7 115.714 193.241 114.629 194.531 114.321C195.544 114.078 196.398 114.569 196.659 115.375C196.92 116.181 195.863 118.432 195.14 118.345C194.141 118.323 193.379 117.811 193.17 117.166Z" fill="#C4C4C4"/>
<path d="M127.212 106.995C126.742 105.543 127.283 104.458 128.573 104.15C129.586 103.907 130.44 104.398 130.701 105.204C130.963 106.01 129.906 108.261 129.183 108.174C128.183 108.152 127.421 107.64 127.212 106.995Z" fill="#C4C4C4"/>
<path d="M87.4718 144.361C87.0014 142.91 87.543 141.825 88.8326 141.517C89.8458 141.274 90.6996 141.765 90.9609 142.571C91.2222 143.377 90.1652 145.628 89.4421 145.541C88.4426 145.519 87.6808 145.006 87.4718 144.361Z" fill="#C4C4C4"/>
<path d="M97.7179 160.141C97.2475 158.69 97.7891 157.605 99.0787 157.296C100.092 157.054 100.946 157.545 101.207 158.351C101.468 159.157 100.411 161.408 99.6882 161.321C98.6887 161.299 97.9269 160.786 97.7179 160.141Z" fill="#C4C4C4"/>
<path d="M230.319 137.173C229.804 135.583 230.293 134.073 231.347 133.928C232.741 133.702 234.619 134.216 234.877 135.011C235.263 136.203 234.061 137.776 232.585 138.129C231.45 138.401 230.576 137.968 230.319 137.173Z" fill="#C4C4C4"/>
<path d="M139.254 169.838C140.22 169.82 140.895 170.403 141.376 171.138C142.05 172.466 141.353 174.441 139.839 175.016C139.613 175.07 139.275 175.151 139.017 175.106C137.843 174.855 137.474 174.093 137.493 173.025C137.415 171.661 138.32 169.955 139.254 169.838Z" fill="#C4C4C4"/>
<path d="M173.226 165.981C171.638 166.361 170.732 165.829 170.346 164.637C170.137 163.616 171.08 161.999 172.101 161.754C173.236 161.483 174.821 162.602 175.24 163.894C175.821 164.932 175.155 165.52 173.226 165.981Z" fill="#C4C4C4"/>
<path d="M156.764 125.208C157.132 125.97 156.874 126.67 156.583 127.271C156.162 128.221 155.229 128.338 154.345 128.231C153.605 128.196 153.156 127.559 153.077 126.941C153.062 126.519 153.159 126.071 153 125.578C152.808 124.986 151.876 124.359 152.601 123.973C153.519 123.434 154.773 123.559 155.834 123.836C156.268 124.051 156.492 124.742 156.764 125.208Z" fill="#C4C4C4"/>
<path d="M114.867 175.629C114.884 175.306 114.66 174.615 114.838 174.041C114.984 173.369 115.211 172.57 116.177 172.552C117.029 172.56 118.027 172.641 118.652 173.448C119.246 174.156 118.58 176.972 117.743 177.385C116.905 177.798 115.314 177.01 114.867 175.629Z" fill="#C4C4C4"/>
<path d="M127.208 185.436C127.659 186.828 127.284 187.561 125.776 187.815C124.64 188.087 122.81 187.346 122.584 186.65C122.262 185.656 123.27 184.235 124.519 183.936C126.028 183.683 126.757 184.044 127.208 185.436Z" fill="#C4C4C4"/>
<path d="M151.156 143.988C150.836 143 151.597 141.221 152.5 141.005C153.371 140.691 155.092 141.875 155.331 142.989C155.603 144.201 155.02 145.405 153.859 145.576C152.731 145.846 151.508 145.075 151.156 143.988Z" fill="#C4C4C4"/>
<path d="M171.508 109.7C170.603 109.916 169.265 109.17 168.831 108.207C168.397 107.245 169.467 105.282 170.598 105.012C171.502 104.795 172.873 105.64 173.162 106.531C173.724 107.89 172.833 109.276 171.508 109.7Z" fill="#C4C4C4"/>
<path d="M144.311 186.582C143.451 186.573 142.331 187.27 141.766 185.904C141.443 184.909 142.681 182.683 143.704 182.438C144.726 182.193 146.314 183.314 146.554 184.436C146.828 185.658 146.275 186.219 144.311 186.582Z" fill="#C4C4C4"/>
<path d="M133.292 175.256C134.275 175.66 134.079 176.559 134.272 177.152C135.011 178.681 133.813 180.246 132.023 180.354C131.168 180.346 130.587 180.058 130.476 179.339C130.319 177.352 131.096 175.994 133.292 175.256Z" fill="#C4C4C4"/>
<path d="M117.315 189.234C118.786 188.882 119.657 189.313 119.978 190.304C120.395 191.591 119.228 193.256 117.952 193.455C116.902 193.6 116.402 193.186 116.259 192.367C115.683 189.838 115.845 189.585 117.315 189.234Z" fill="#C4C4C4"/>
<path d="M112.761 117.636C113.894 117.364 114.706 116.101 114.498 115.082C114.24 114.289 113.53 113.604 112.722 113.37C112.089 114.055 111.457 114.741 110.824 115.427C110.694 115.779 110.451 116.158 110.321 116.509C110.691 117.276 111.855 117.852 112.761 117.636Z" fill="#C4C4C4"/>
<path d="M177.02 131.406C177.276 132.196 176.903 132.925 176.386 133.581C175.901 134.336 175.24 134.175 174.498 134.139C173.756 134.104 173.402 133.762 173.21 133.169C172.793 131.884 173.587 130.203 174.878 129.681C175.831 129.24 176.797 129.967 177.02 131.406Z" fill="#C4C4C4"/>
<path d="M174.922 174.59C175.547 176.893 174.867 177.802 172.721 177.569C171.317 177.372 170.802 176.535 171.273 175.357C171.484 174.88 171.921 174.349 172.309 174.043C172.778 173.611 173.005 172.81 173.957 173.115C174.731 173.25 174.956 173.942 174.922 174.59Z" fill="#C4C4C4"/>
<path d="M150.99 174.475C149.855 174.747 149.094 174.286 148.658 173.318C148.158 172.152 148.776 171.039 150.334 170.559C151.664 170.134 152.685 170.639 153.007 171.634C153.329 172.629 152.321 174.049 150.99 174.475Z" fill="#C4C4C4"/>
<path d="M183.032 168.196C182.684 167.459 182.832 166.696 183.213 165.871C183.77 164.794 184.499 164.707 185.488 165.483C185.866 165.902 186.332 166.194 186.71 166.613C187.291 167.289 188.252 167.97 187.375 168.82C186.878 169.261 186.352 170.019 185.302 169.88C184.136 169.771 183.35 169.252 183.032 168.196Z" fill="#C4C4C4"/>
<path d="M178.974 148.979C180.101 148.71 181.934 149.866 182.317 151.05C182.669 152.136 182.023 153.141 180.896 153.41C179.881 153.653 178.371 152.739 178.276 151.698C178.214 150.756 177.975 149.644 178.974 148.979Z" fill="#C4C4C4"/>
<path d="M203.79 87.0904C203.472 85.3588 204.086 84.2548 205.616 84.1015C207.483 83.8673 207.223 85.3121 207.543 86.299C207.91 87.8062 207.506 88.4346 206.121 88.6596C204.881 88.9563 204.061 88.3017 203.79 87.0904Z" fill="#C4C4C4"/>
<path d="M207.682 162.473C208.268 162.01 208.967 161.521 209.585 161.158C210.967 160.505 211.989 161.012 212.767 161.899C213.545 162.787 212.974 163.675 212.34 164.364C211.509 165.208 210.211 164.982 209.806 164.112C209.256 163.17 207.696 163.651 207.682 162.473Z" fill="#C4C4C4"/>
<path d="M178.153 118.415C177.135 118.658 175.829 118.011 175.509 117.022C175.156 115.933 175.983 114.35 177 114.106C177.904 113.89 179.274 114.735 179.595 115.724C179.916 116.714 179.17 118.171 178.153 118.415Z" fill="#C4C4C4"/>
<path d="M149.996 154.345C149.581 153.065 150.146 151.445 151.158 151.202C151.945 151.014 153.083 151.909 153.434 152.992C153.848 154.272 153.219 155.696 152.063 155.866C150.794 156.064 150.395 155.204 149.996 154.345Z" fill="#C4C4C4"/>
<path d="M113.685 165.493C111.894 164.855 111.234 163.946 111.301 162.649C111.385 161.029 113.18 160.173 114.891 160.937C116.02 161.414 116.164 162.233 115.161 162.899C114.158 163.566 113.704 164.422 113.685 165.493Z" fill="#C4C4C4"/>
<path d="M198.101 160.352C198.666 160.217 199.037 160.235 199.536 160.648C200.212 161.232 200.582 161.996 200.499 162.868C200.368 163.965 198.93 165.161 197.785 165.009C196.64 164.857 196.288 163.769 196.694 162.393C197.068 160.919 197.343 160.64 198.101 160.352Z" fill="#C4C4C4"/>
<path d="M127.171 156.902C126.071 157.272 124.908 156.696 124.474 155.732C124.12 154.642 124.786 153.308 125.999 152.911C126.986 152.568 128.117 153.045 128.438 154.036C128.841 154.901 128.158 156.559 127.171 156.902Z" fill="#C4C4C4"/>
<path d="M195.189 146.545C195.654 147.605 195.395 148.305 194.186 148.701C193.09 149.07 191.496 148.28 191.176 147.293C190.775 146.431 191.536 144.652 192.326 144.463C193.342 144.22 194.741 145.162 195.189 146.545Z" fill="#C4C4C4"/>
<path d="M168.406 155.849C167.502 156.065 166.132 155.22 165.73 154.357C165.328 153.494 166.511 151.505 167.511 151.586C168.624 151.639 169.495 152.071 169.703 153.087C169.974 154.301 169.423 155.606 168.406 155.849Z" fill="#C4C4C4"/>
<path d="M128.378 169.332C126.899 169.686 125.454 169.388 125.05 168.518C124.678 167.748 125.315 166.307 126.306 165.962C127.298 165.617 129.602 166.676 129.811 167.7C129.988 168.624 129.434 169.187 128.378 169.332Z" fill="#C4C4C4"/>
<path d="M159.062 183.226C158.385 183.388 157.887 182.975 157.502 182.536C156.699 181.558 157.268 179.189 158.412 178.597C158.637 178.543 158.831 178.39 158.975 178.462C159.603 178.524 160.999 180.21 161.143 181.027C161.075 182.319 159.98 182.687 159.062 183.226Z" fill="#C4C4C4"/>
<path d="M207.82 133.666C206.725 134.47 205.483 135.201 203.982 135.129C202.367 135.084 201.7 134.162 202.404 132.911C203.55 131.121 205.981 131.403 207.82 133.666Z" fill="#C4C4C4"/>
<path d="M232.1 148.593C231.748 147.506 232.137 146.455 233.121 146.113C234.137 145.87 235.185 145.726 235.714 146.983C236.002 147.872 235.369 150.046 234.691 150.208C233.901 150.398 232.501 149.455 232.1 148.593Z" fill="#C4C4C4"/>
<path d="M184.824 107.146C183.953 107.461 182.616 106.716 182.183 105.754C181.718 104.694 182.318 103.166 183.334 102.923C184.463 102.653 185.333 103.084 185.879 104.018C186.393 104.854 185.695 106.831 184.824 107.146Z" fill="#C4C4C4"/>
<path d="M196.858 101.874C197.859 101.955 198.941 101.909 199.327 103.097C199.615 103.988 198.771 105.897 197.867 106.114C196.962 106.33 195.591 105.485 195.302 104.594C194.998 103.28 195.808 102.019 196.858 101.874Z" fill="#C4C4C4"/>
<path d="M215.614 133.558C215.088 132.306 215.089 131.563 215.86 130.955C216.439 130.498 216.952 130.588 217.528 130.874C218.506 131.276 219.065 131.884 218.871 132.778C218.677 133.673 218.786 135.131 217.631 135.301C216.139 135.552 215.805 134.148 215.614 133.558Z" fill="#C4C4C4"/>
<path d="M108.074 137.249C107.689 136.061 108.354 134.729 109.372 134.485C110.276 134.269 111.615 135.015 111.936 136.005C112.224 136.896 111.22 138.31 109.863 138.634C108.7 138.806 108.412 137.915 108.074 137.249Z" fill="#C4C4C4"/>
<path d="M195.862 125.256C195.686 124.334 196.857 122.661 197.911 122.516C198.819 122.298 200.534 123.816 200.516 124.892C200.529 126.067 199.362 126.24 198.34 126.484C197.059 126.684 196.006 126.079 195.862 125.256Z" fill="#C4C4C4"/>
<path d="M210.229 120.324C211.248 120.081 212.087 120.413 212.571 121.152C213.15 122.187 212.306 124.098 211.174 124.369C209.929 124.666 209.284 124.18 208.849 123.217C208.351 122.055 209.016 120.721 210.229 120.324Z" fill="#C4C4C4"/>
<path d="M227.773 159.201C226.238 159.355 225.447 158.797 224.608 158.464C223.736 158.032 222.864 157.6 223.287 156.645C223.628 155.816 224.324 155.33 225.406 155.284C226.635 155.31 227.312 155.895 227.714 156.76C227.971 157.552 226.968 158.22 227.773 159.201Z" fill="#C4C4C4"/>
<path d="M82.4836 122.085C82.2272 121.294 83.2167 118.713 83.8945 118.551C84.9113 118.308 85.6363 118.667 86.0698 119.629C86.5994 120.887 85.7245 122.695 84.4818 122.992C83.691 123.182 82.8209 122.75 82.4836 122.085Z" fill="#C4C4C4"/>
<path d="M142.269 144.736C142.527 144.781 142.785 144.826 143.076 144.969C144.269 145.644 144.701 147.353 143.795 148.317C143.083 149.127 142.178 149.343 141.049 148.867C140.178 148.436 140.18 147.689 140.553 146.96C140.894 146.131 141.202 145.204 142.269 144.736Z" fill="#C4C4C4"/>
<path d="M137.524 161.025C137.283 159.905 138.031 158.442 139.052 158.198C140.073 157.953 141.27 158.63 141.479 159.65C141.719 160.77 141.151 161.655 139.984 161.828C138.85 162.099 137.846 162.018 137.524 161.025Z" fill="#C4C4C4"/>
<path d="M189.259 135.068C189.163 134.012 189.768 133.221 190.665 132.574C191.448 131.955 192.442 131.609 193.581 132.091C194.166 132.381 194.328 132.882 194.148 133.464C193.804 134.301 191.455 136.158 190.673 136.022C190.071 136.059 189.599 135.741 189.259 135.068Z" fill="#C4C4C4"/>
<path d="M160.813 167.88C159.79 168.124 158.136 167.555 157.878 166.759C157.621 165.962 158.435 164.695 159.425 164.351C160.529 163.979 161.81 164.53 162.246 165.499C162.65 166.367 161.836 167.635 160.813 167.88Z" fill="#C4C4C4"/>
<path d="M132.439 137.078C132.149 136.184 133.189 134.864 134.325 134.592C135.46 134.32 136.107 134.808 136.51 135.675C137.042 136.941 136.619 137.899 135.597 138.143C134.381 138.542 132.729 137.973 132.439 137.078Z" fill="#C4C4C4"/>
<path d="M115.473 147.289C116.269 147.099 116.967 147.361 117.307 148.032C117.89 149.074 116.881 149.746 116.392 150.507C115.903 151.269 114.993 151.487 113.921 151.207C113.077 150.872 112.656 150.328 112.999 149.494C113.456 148.632 114.709 147.58 115.473 147.289Z" fill="#C4C4C4"/>
<path d="M188.96 153.856C189.751 153.667 190.105 154.008 190.41 154.575C190.908 155.734 190.21 157.713 189.306 157.93C188.289 158.173 187.419 157.742 187.13 156.852C186.632 155.692 187.604 154.18 188.96 153.856Z" fill="#C4C4C4"/>
<path d="M221.678 144.585C220.641 145.154 220.221 144.613 219.964 143.819C219.546 142.529 220.067 141.121 221.152 141.075C222.236 141.029 223.223 141.435 223.658 142.4C224.125 143.465 223.411 144.278 221.678 144.585Z" fill="#C4C4C4"/>
<path d="M186.253 92.2895C185.996 91.4973 186.337 90.6688 187.468 90.3981C188.6 90.1274 189.552 90.4331 189.873 91.4233C190.307 92.3865 189.642 93.7194 188.85 93.9088C187.977 94.2244 186.751 93.4507 186.253 92.2895Z" fill="#C4C4C4"/>
<path d="M179.86 138.381C181.74 138.568 183.203 138.218 183.858 139.867C184.145 140.754 183.999 141.426 183.227 142.035C182.647 142.493 181.908 142.457 181.186 142.099C180.576 141.714 180.304 141.248 180.739 140.719C181.673 139.859 180.549 139.384 179.86 138.381Z" fill="#C4C4C4"/>
<path d="M144.876 134.881C144.54 133.469 145.205 132.137 146.399 132.064C147.336 131.947 148.062 132.306 148.205 133.125C148.558 134.214 147.699 135.699 146.569 135.969C145.551 136.213 145.019 135.7 144.876 134.881Z" fill="#C4C4C4"/>
<path d="M166.142 124.434C165.885 123.641 166.582 122.407 167.374 122.218C168.166 122.028 169.618 122.748 169.875 123.54C170.196 124.531 169.467 125.666 168.448 125.909C167.624 126 166.43 125.325 166.142 124.434Z" fill="#C4C4C4"/>
<path d="M227.201 124.309C226.694 125.399 225.88 125.918 224.514 125.491C223.295 125.138 223.378 124.256 223.607 123.448C223.854 122.312 224.993 122.039 226.133 121.766C226.93 121.575 227.565 121.638 228.019 122.283C228.424 123.155 228.162 123.863 227.201 124.309C227.25 124.082 227.446 123.927 227.463 123.6C227.594 123.246 227.578 122.819 227.058 122.728C226.652 122.61 226.196 122.72 225.951 123.101C225.706 123.483 226.063 123.828 226.356 123.973C226.648 124.118 226.908 124.164 227.201 124.309Z" fill="#C4C4C4"/>
<path d="M124.894 140.484C125.832 140.367 126.446 140.754 126.703 141.547C127.088 142.737 126.39 143.972 125.193 144.045C124.029 144.217 123.432 143.505 123.175 142.712C122.918 141.919 123.648 140.783 124.894 140.484Z" fill="#C4C4C4"/>
<path d="M163.353 135.85C161.88 136.203 160.636 135.752 160.346 134.86C159.912 133.895 160.529 132.785 161.662 132.514C162.795 132.243 163.845 132.847 164.085 133.965C164.342 134.759 164.082 135.462 163.353 135.85Z" fill="#C4C4C4"/>
<path d="M158.969 113.998C159.018 113.774 158.827 113.183 159.036 112.709C159.295 112.01 159.922 111.329 160.805 111.436C161.688 111.543 161.911 112.233 162.166 113.02C162.373 114.032 161.312 114.498 161.374 115.438C161.389 115.859 160.538 115.85 160.106 115.636C159.416 115.376 159.144 114.911 158.969 113.998Z" fill="#C4C4C4"/>
<path d="M203.561 154.403C202.635 154.195 202.244 154.504 201.95 155.112C201.82 155.465 201.543 155.747 201.072 155.43C200.894 155.257 200.683 154.985 200.618 154.786C200.457 154.287 202.592 151.41 203.194 151.373C204.169 151.354 204.623 151.998 204.963 152.67C205.416 153.313 205.236 153.894 204.504 154.285C204.309 154.439 203.821 154.448 203.561 154.403Z" fill="#C4C4C4"/>
<path d="M168.346 143.015C168.153 142.418 169.242 140.871 169.892 140.608C171.141 140.309 172.08 140.942 172.499 142.235C172.853 143.329 172.123 143.718 171.214 143.936C170.111 144.307 168.604 143.811 168.346 143.015Z" fill="#C4C4C4"/>
<path d="M214.307 148.456C215.066 148.168 216.403 148.913 216.691 149.803C216.948 150.594 216.203 152.051 215.299 152.268C214.395 152.484 213.67 152.125 213.3 151.361C212.867 150.399 213.403 148.672 214.307 148.456Z" fill="#C4C4C4"/>
<path d="M211.963 97.548C212.291 96.2867 211.92 94.7627 213.871 94.7255C214.846 94.7069 215.56 95.396 215.509 96.3759C215.491 97.4555 214.726 97.7462 211.963 97.548Z" fill="#C4C4C4"/>
<path d="M105.328 148.526C105.529 149.006 106.109 149.553 105.085 150.037C103.506 150.866 101.817 150.842 101.16 150.004C100.584 149.291 100.939 148.466 101.962 147.982C103.327 147.337 104.674 147.522 105.328 148.526Z" fill="#C4C4C4"/>
<path d="M182.154 257.846C226.548 257.846 262.536 221.896 262.536 177.55C262.536 133.203 226.548 97.2536 182.154 97.2536C137.76 97.2536 101.772 133.203 101.772 177.55C101.772 221.896 137.76 257.846 182.154 257.846Z" stroke="#F7444F" stroke-width="3" stroke-miterlimit="10"/>
<path opacity="0.3" d="M313.803 494.281C349.666 494.281 378.739 465.24 378.739 429.415C378.739 393.59 349.666 364.548 313.803 364.548C277.94 364.548 248.867 393.59 248.867 429.415C248.867 465.24 277.94 494.281 313.803 494.281Z" fill="#78BDC4"/>
<path d="M376.769 449.209C376.161 449.104 375.461 449.133 375.016 448.364C374.463 447.468 375.141 447.045 375.404 446.377C375.674 445.84 375.736 445.181 375.999 444.513C376.602 442.779 377.387 442.483 378.74 443.346C379.785 444.09 380.045 445.13 379.342 446.867C378.817 448.203 377.962 449.027 376.769 449.209Z" fill="#012C3D"/>
<path d="M349.18 397.388C348.573 397.282 347.872 397.312 347.427 396.542C346.875 395.646 347.552 395.223 347.815 394.555C348.085 394.018 348.148 393.359 348.41 392.691C349.013 390.958 349.798 390.662 351.151 391.524C352.197 392.268 352.457 393.308 351.754 395.046C351.228 396.382 350.373 397.206 349.18 397.388Z" fill="#012C3D"/>
<path d="M335.159 447.588C335.132 445.359 335.925 443.488 336.922 443.446C338.02 443.4 338.9 444.805 338.997 446.507C339.009 448.474 338.086 449.825 336.682 449.753C335.378 449.678 335.211 448.504 335.159 447.588Z" fill="#012C3D"/>
<path d="M365.353 417.263C365.253 417.267 364.76 417.419 364.351 417.305C363.427 416.95 362.395 416.467 362.405 414.889C362.423 413.441 363.18 412.62 364.166 412.315C365.446 411.866 367.493 414.279 367.397 416.124C367.35 417.047 366.864 417.33 365.353 417.263Z" fill="#012C3D"/>
<path d="M350.321 452.208C350.433 454.172 349.886 455.114 348.688 455.164C347.391 455.219 346.425 454.079 346.527 452.369C346.567 451.317 346.171 449.628 347.66 449.434C349.043 449.113 350.116 450.379 350.321 452.208Z" fill="#012C3D"/>
<path d="M358.514 459.251C357.313 459.302 356.346 458.16 356.256 456.587C356.196 455.539 357.606 453.903 358.507 453.864C359.407 453.826 360.59 455.222 360.665 456.532C360.755 458.105 359.915 459.192 358.514 459.251Z" fill="#012C3D"/>
<path d="M371.398 454.562C371.533 456.918 370.717 458.396 369.32 458.455C368.222 458.502 367.463 457.484 367.388 456.175C367.314 454.866 368.938 451.779 369.659 452.142C370.672 452.362 371.331 453.384 371.398 454.562Z" fill="#012C3D"/>
<path d="M337.011 413.392C337.131 415.489 336.428 417.226 335.521 417.133C334.313 417.053 332.846 415.933 332.786 414.884C332.696 413.312 334.006 411.68 335.306 411.625C336.306 411.583 336.951 412.344 337.011 413.392Z" fill="#012C3D"/>
<path d="M394.033 395.702C395.433 395.643 396.085 396.535 396.175 398.107C396.15 399.422 395.047 401.176 394.148 401.214C393.148 401.256 392.043 399.464 391.946 397.761C391.756 396.193 392.333 395.774 394.033 395.702Z" fill="#012C3D"/>
<path d="M400.102 452.081C399.943 451.038 400.297 450.237 400.658 449.565C401.196 448.493 402.001 448.591 402.721 448.953C403.334 449.19 403.585 450.097 403.531 450.886C403.461 451.414 403.291 451.946 403.329 452.6C403.373 453.385 404.031 454.406 403.348 454.697C402.474 455.128 401.447 454.647 400.613 454.026C400.299 453.777 400.239 452.731 400.102 452.081Z" fill="#012C3D"/>
<path d="M408.167 429.768C408.242 431.077 407.257 433.087 406.459 433.12C405.668 433.285 404.459 431.368 404.477 429.925C404.487 428.35 405.21 427.007 406.215 427.096C407.212 427.054 408.085 428.329 408.167 429.768Z" fill="#012C3D"/>
<path d="M385.32 467.692C386.119 467.658 387.092 468.929 387.267 470.234C387.442 471.539 386.164 473.693 385.165 473.735C384.367 473.769 383.386 472.367 383.318 471.189C383.214 469.356 384.122 467.743 385.32 467.692Z" fill="#012C3D"/>
<path d="M384.64 438.478C384.58 437.431 385.034 436.624 385.595 435.945C386.149 435.134 386.671 435.505 387.284 435.742C387.898 435.978 388.127 436.493 388.172 437.279C388.269 438.98 387.276 440.859 386.094 441.172C385.203 441.341 384.545 440.319 384.64 438.478Z" fill="#012C3D"/>
<path d="M386.372 389.828C386.429 391.001 386.171 391.927 385.704 392.734C385.055 393.941 384.442 393.841 383.772 392.568C383.537 391.927 383.209 391.421 382.974 390.779C382.62 389.752 381.956 388.609 382.827 387.783C383.313 387.367 383.88 386.556 384.715 387.037C385.751 387.508 386.402 388.39 386.372 389.828Z" fill="#012C3D"/>
<path d="M386.227 415.316C385.23 415.359 383.922 413.447 383.832 411.876C383.75 410.437 384.488 409.357 385.484 409.314C386.382 409.276 387.468 410.804 387.343 412.121C387.219 413.438 387.301 414.877 386.227 415.316Z" fill="#012C3D"/>
<path d="M340.042 475.955C339.97 478.188 339.24 479.399 337.929 479.193C336.319 478.999 336.82 477.272 336.745 475.964C336.733 473.997 337.194 473.321 338.398 473.402C339.502 473.486 340.052 474.381 340.042 475.955Z" fill="#012C3D"/>
<path d="M365.191 389.852C364.613 390.271 363.935 390.694 363.349 390.982C362.171 391.426 361.425 390.669 360.95 389.375C360.474 388.08 361.122 387.133 361.786 386.448C362.641 385.623 363.68 386.236 363.847 387.412C364.015 388.588 365.409 388.397 365.191 389.852Z" fill="#012C3D"/>
<path d="M381.435 454.564C382.334 454.526 383.299 455.666 383.374 456.975C383.456 458.415 382.455 460.164 381.557 460.202C380.759 460.236 379.778 458.834 379.703 457.525C379.628 456.215 380.544 454.733 381.435 454.564Z" fill="#012C3D"/>
<path d="M410.979 416.96C411.076 418.661 410.284 420.53 409.388 420.568C408.691 420.597 407.912 419.188 407.83 417.75C407.733 416.049 408.54 414.442 409.543 414.53C410.645 414.615 410.82 415.918 410.979 416.96Z" fill="#012C3D"/>
<path d="M372.591 395.351C372.092 395.373 371.785 395.254 371.448 394.613C370.997 393.713 370.837 392.67 371.077 391.61C371.401 390.285 372.838 389.174 373.766 389.66C374.694 390.145 374.776 391.585 374.167 393.185C373.566 394.916 373.289 395.322 372.591 395.351Z" fill="#012C3D"/>
<path d="M372.489 414.002C372.307 412.567 372.662 411.765 373.751 411.588C374.741 411.415 375.92 412.808 375.995 414.116C376.162 415.29 375.177 417.299 374.479 417.329C373.574 417.236 372.686 415.7 372.489 414.002Z" fill="#012C3D"/>
<path d="M396.155 409.963C396.954 409.929 397.934 411.331 398.101 412.505C398.268 413.679 396.891 415.837 396.07 415.478C395.149 415.124 394.505 414.364 394.53 413.05C394.533 411.344 395.257 410.001 396.155 409.963Z" fill="#012C3D"/>
<path d="M359.83 426.627C360.896 425.924 362.07 425.348 363.304 425.822C364.638 426.292 365.014 427.592 364.186 428.944C362.887 430.841 360.921 429.872 359.83 426.627Z" fill="#012C3D"/>
<path d="M373.95 467.077C374.74 466.912 375.713 468.183 375.887 469.488C376.069 470.923 375.269 472.663 374.371 472.701C373.373 472.743 372.73 471.983 372.456 470.683C372.281 469.378 373.159 467.242 373.95 467.077Z" fill="#012C3D"/>
<path d="M363.103 470.121C362.282 469.762 361.368 469.539 361.278 467.967C361.211 466.789 362.289 464.644 363.088 464.61C363.887 464.576 364.868 465.978 364.935 467.156C364.925 468.732 364.101 470.079 363.103 470.121Z" fill="#012C3D"/>
<path d="M353.606 424.359C353.802 426.054 353.655 426.978 352.889 427.535C352.314 427.953 351.902 427.708 351.474 427.202C350.732 426.447 350.382 425.544 350.72 424.481C351.059 423.418 351.253 421.575 352.255 421.663C353.457 421.743 353.462 423.578 353.606 424.359Z" fill="#012C3D"/>
<path d="M368.288 440.614C368.255 441.797 366.952 443.56 366.044 443.467C365.244 443.501 364.109 441.185 364.334 439.861C364.552 438.407 365.56 438.496 366.46 438.458C367.475 438.678 368.228 439.565 368.288 440.614Z" fill="#012C3D"/>
<path d="M355.468 442.684C354.57 442.722 353.933 442.092 353.673 441.053C353.391 439.621 354.47 437.476 355.469 437.433C356.568 437.387 357.012 438.155 357.187 439.461C357.376 441.028 356.56 442.506 355.468 442.684Z" fill="#012C3D"/>
<path d="M369.232 480.52C369.292 481.567 367.96 484.51 367.361 484.535C366.463 484.573 365.927 483.94 365.752 482.635C365.555 480.938 366.64 478.924 367.738 478.877C368.437 478.848 369.08 479.608 369.232 480.52Z" fill="#012C3D"/>
<path d="M415.495 431.364C415.288 431.242 415.08 431.119 414.866 430.866C414 429.722 413.972 427.492 414.918 426.533C415.672 425.714 416.471 425.68 417.322 426.562C417.966 427.323 417.818 428.248 417.364 429.054C416.917 429.992 416.478 431.06 415.495 431.364Z" fill="#012C3D"/>
<path d="M375.363 430.078C375.238 431.399 374.581 432.216 373.71 432.779C372.938 433.338 372.044 433.507 371.189 432.623C370.758 432.115 370.721 431.459 370.984 430.79C371.432 429.85 373.747 428.173 374.371 428.542C374.88 428.652 375.21 429.164 375.363 430.078Z" fill="#012C3D"/>
<path d="M404.524 396.752C405.425 396.714 406.693 397.843 406.753 398.891C406.813 399.94 405.887 401.293 404.994 401.462C404.001 401.636 403.041 400.625 402.866 399.319C402.806 398.27 403.631 396.921 404.524 396.752Z" fill="#012C3D"/>
<path d="M335.171 432.454C335.246 433.763 334.899 434.696 333.801 434.743C332.803 434.785 331.822 433.383 331.725 431.681C331.658 430.503 332.112 429.697 333.003 429.528C333.994 429.354 335.081 430.883 335.171 432.454Z" fill="#012C3D"/>
<path d="M379.005 406.262C378.306 406.291 378.077 405.776 377.932 404.995C377.742 403.429 378.713 401.157 379.512 401.123C380.41 401.085 381.053 401.845 381.121 403.023C381.21 404.594 380.202 406.211 379.005 406.262Z" fill="#012C3D"/>
<path d="M350.508 408.692C351.485 408.257 351.73 409.034 351.79 410.082C351.887 411.785 351.177 413.39 350.263 413.167C349.348 412.943 348.603 412.186 348.428 410.881C348.346 409.44 349.008 408.756 350.508 408.692Z" fill="#012C3D"/>
<path d="M359.672 479.43C359.732 480.478 359.285 481.416 358.287 481.458C357.288 481.5 356.552 480.875 356.477 479.566C356.302 478.261 357.119 476.782 357.818 476.753C358.616 476.719 359.582 477.859 359.672 479.43Z" fill="#012C3D"/>
<path d="M383.62 428.508C382.081 427.786 380.786 427.841 380.56 425.621C380.493 424.444 380.747 423.646 381.514 423.089C382.089 422.672 382.702 422.908 383.237 423.541C383.673 424.178 383.81 424.828 383.342 425.372C382.398 426.33 383.239 427.081 383.62 428.508Z" fill="#012C3D"/>
<path d="M411.666 443.173C411.671 445.01 410.855 446.488 409.842 446.268C409.036 446.171 408.499 445.538 408.539 444.486C408.457 443.046 409.465 441.429 410.464 441.386C411.362 441.348 411.706 442.121 411.666 443.173Z" fill="#012C3D"/>
<path d="M392.376 450.395C392.435 451.443 391.611 452.79 390.912 452.82C390.213 452.849 389.14 451.582 389.08 450.535C389.005 449.225 389.837 448.009 390.735 447.971C391.435 447.941 392.308 449.217 392.376 450.395Z" fill="#012C3D"/>
<path d="M349.076 470.026C349.143 471.204 348.312 472.42 347.514 472.454C346.715 472.488 345.927 470.947 345.952 469.633C345.977 468.32 346.538 467.64 347.444 467.733C348.45 467.822 348.809 468.856 349.076 470.026Z" fill="#012C3D"/>
<path d="M342.306 432.988C342.94 431.777 343.719 431.35 344.773 432.226C345.72 432.975 345.479 434.037 345.131 434.972C344.705 436.305 343.704 436.347 342.702 436.39C342.001 436.419 341.485 436.178 341.232 435.269C341.057 433.961 341.412 433.157 342.306 432.988C342.221 433.254 342.028 433.394 341.951 433.792C341.773 434.194 341.803 434.718 342.118 434.968C342.434 435.218 342.835 435.201 343.113 434.794C343.391 434.388 343.16 433.872 342.945 433.618C342.722 433.233 342.514 433.11 342.306 432.988Z" fill="#012C3D"/>
<path d="M396.679 436.835C397.979 436.78 398.931 437.658 398.998 438.837C399.173 440.142 398.441 441.355 397.441 441.397C396.442 441.44 395.682 440.421 395.7 438.977C395.632 437.798 395.987 436.995 396.679 436.835Z" fill="#012C3D"/>
<path d="M396.365 465.605C396.28 465.871 396.325 466.656 396.056 467.192C395.702 467.993 395.043 468.677 394.324 468.314C393.604 467.951 393.552 467.036 393.492 465.989C393.418 464.681 394.498 464.373 394.63 463.188C394.7 462.66 395.412 462.892 395.733 463.272C396.26 463.774 396.397 464.424 396.365 465.605Z" fill="#012C3D"/>
<path d="M367.083 401.473C367.814 401.968 368.2 401.689 368.563 401.016C368.74 400.614 369.026 400.339 369.356 400.851C369.471 401.109 369.594 401.498 369.609 401.76C369.646 402.416 367.308 405.407 366.8 405.297C365.984 405.069 365.731 404.159 365.579 403.246C365.326 402.336 365.589 401.668 366.275 401.376C366.575 401.363 366.883 401.481 367.083 401.473Z" fill="#012C3D"/>
<path d="M393.91 426.03C393.955 426.816 392.744 428.444 392.151 428.6C391.05 428.647 390.39 427.624 390.293 425.921C390.21 424.479 390.896 424.187 391.696 424.154C392.689 423.98 393.857 425.113 393.91 426.03Z" fill="#012C3D"/>
<path d="M357.193 405.774C356.502 405.934 355.529 404.663 355.462 403.485C355.402 402.438 356.31 400.825 357.108 400.791C357.907 400.757 358.443 401.391 358.603 402.434C358.777 403.738 357.991 405.74 357.193 405.774Z" fill="#012C3D"/>
<path d="M348.757 480.089C348.239 481.557 348.251 483.528 346.619 483.071C345.802 482.843 345.342 481.811 345.575 480.618C345.9 479.29 346.594 479.129 348.757 480.089Z" fill="#012C3D"/>
<path d="M336.877 460.467C336.613 461.258 336.05 461.58 335.282 461.451C334.131 461.258 333.36 460.19 333.762 459.214C334.068 458.222 334.898 458.048 335.666 458.177C336.433 458.306 337.108 459.358 336.877 460.467Z" fill="#012C3D"/>
<path d="M324.526 407.341C323.468 407.164 322.245 405.389 322.359 404.362C322.422 404.059 322.603 403.671 322.858 403.4C323.666 402.385 324.649 402.445 326.019 403.512C327.218 404.446 327.66 405.671 327.044 406.718C326.353 407.648 325.358 407.167 324.526 407.341Z" fill="#012C3D"/>
<path d="M309.68 455.226C309.459 455.813 309.312 456.517 308.655 456.823C307.88 457.213 307.739 456.461 307.324 456.079C307.004 455.713 306.546 455.532 306.131 455.15C305.033 454.237 305.009 453.401 305.951 452.206C306.735 451.297 307.542 451.224 308.619 452.237C309.546 453.018 309.931 454.019 309.68 455.226Z" fill="#012C3D"/>
<path d="M323.063 417.915C323.102 416.775 323.633 416.134 324.879 416.344C326.221 416.569 327.524 417.935 327.315 418.942C327.21 419.446 324.436 420.857 323.956 420.776C323.21 420.547 322.77 419.326 323.063 417.915Z" fill="#012C3D"/>
<path d="M283.544 460.163C283.523 460.263 283.514 460.78 283.336 461.165C282.862 462.019 282.273 462.957 281.15 462.665C280.123 462.389 279.718 461.491 279.735 460.456C279.72 459.106 281.927 457.506 283.219 457.93C283.865 458.143 283.952 458.676 283.544 460.163Z" fill="#012C3D"/>
<path d="M306.222 481.304C307.663 481.546 308.21 482.265 307.957 483.477C307.684 484.789 306.63 485.553 305.423 485.141C304.676 484.911 303.364 485.004 303.583 483.473C303.781 482.043 304.877 481.078 306.222 481.304Z" fill="#012C3D"/>
<path d="M313.259 474.715C313.008 475.921 311.959 476.682 310.811 476.489C310.046 476.36 309.212 474.66 309.4 473.755C309.588 472.85 310.871 471.921 311.827 472.081C312.88 472.258 313.552 473.308 313.259 474.715Z" fill="#012C3D"/>
<path d="M312.637 461.35C314.367 461.64 315.235 462.727 314.941 464.142C314.709 465.253 313.793 465.831 312.832 465.67C311.871 465.508 310.038 463.318 310.474 462.66C310.973 461.698 311.868 461.221 312.637 461.35Z" fill="#012C3D"/>
<path d="M277.286 482.183C278.818 482.44 279.895 483.455 279.611 484.344C279.264 485.536 278.109 486.8 277.343 486.671C276.194 486.478 275.338 484.876 275.61 483.568C275.819 482.562 276.52 482.055 277.286 482.183Z" fill="#012C3D"/>
<path d="M283.491 401.964C283.129 402.741 282.371 403.033 281.559 403.106C280.169 403.082 278.764 401.693 278.866 400.243C278.908 400.041 278.971 399.737 279.109 399.551C279.78 398.72 280.572 398.749 281.471 399.214C282.66 399.728 283.755 401.17 283.491 401.964Z" fill="#012C3D"/>
<path d="M273.85 428.505C274.143 427.096 274.94 426.605 276.089 426.798C277.026 427.059 278.02 428.476 277.831 429.382C277.622 430.389 276.071 431.17 274.826 430.961C273.73 430.986 273.494 430.217 273.85 428.505Z" fill="#012C3D"/>
<path d="M317.088 433.405C316.296 433.377 315.803 432.874 315.405 432.388C314.761 431.651 315.026 430.856 315.462 430.195C315.781 429.62 316.498 429.53 317.055 429.729C317.419 429.895 317.762 430.162 318.244 430.243C318.822 430.34 319.719 429.862 319.765 430.604C319.864 431.564 319.268 432.513 318.618 433.243C318.265 433.498 317.591 433.385 317.088 433.405Z" fill="#012C3D"/>
<path d="M288.058 381.524C288.326 381.674 289 381.787 289.419 382.172C289.934 382.573 290.524 383.092 290.163 383.87C289.822 384.547 289.365 385.309 288.435 385.467C287.601 385.641 285.467 383.919 285.442 383.076C285.418 382.234 286.71 381.297 288.058 381.524Z" fill="#012C3D"/>
<path d="M274.268 386.784C272.928 386.559 272.459 385.959 272.827 384.668C273.036 383.662 274.361 382.531 275.031 382.644C275.988 382.804 276.79 384.188 276.559 385.295C276.192 386.586 275.608 387.009 274.268 386.784Z" fill="#012C3D"/>
<path d="M302.36 421.257C303.322 421.419 304.534 422.774 304.366 423.583C304.294 424.409 302.619 425.279 301.582 425C300.448 424.705 299.654 423.734 299.961 422.739C300.171 421.727 301.302 421.079 302.36 421.257Z" fill="#012C3D"/>
<path d="M325.469 450.529C325.637 449.721 326.787 448.974 327.769 449.034C328.75 449.095 329.993 450.766 329.783 451.776C329.615 452.584 328.369 453.315 327.505 453.17C326.139 453.045 325.313 451.757 325.469 450.529Z" fill="#012C3D"/>
<path d="M266.629 398.752C266.966 398.08 266.814 396.91 268.174 397.035C269.131 397.195 270.518 399.093 270.33 399.998C270.141 400.903 268.593 401.683 267.561 401.406C266.434 401.112 266.177 400.445 266.629 398.752Z" fill="#012C3D"/>
<path d="M280.94 395.414C280.216 396.024 279.531 395.491 278.954 395.394C277.374 395.338 276.514 393.729 277.118 392.262C277.458 391.587 277.926 391.247 278.578 391.461C280.321 392.172 281.168 393.36 280.94 395.414Z" fill="#012C3D"/>
<path d="M274.623 377.796C274.35 379.108 273.648 379.617 272.687 379.456C271.439 379.246 270.484 377.623 270.811 376.529C271.096 375.636 271.64 375.414 272.387 375.644C274.746 376.249 274.896 376.483 274.623 377.796Z" fill="#012C3D"/>
<path d="M339.682 401.009C339.472 402.017 340.221 403.186 341.159 403.448C341.927 403.576 342.778 403.302 343.287 402.762C342.955 401.976 342.622 401.19 342.289 400.404C342.043 400.154 341.819 399.803 341.573 399.553C340.785 399.525 339.85 400.203 339.682 401.009Z" fill="#012C3D"/>
<path d="M303.482 445.7C302.713 445.571 302.241 444.968 301.886 444.281C301.435 443.578 301.829 443.121 302.148 442.546C302.466 441.972 302.893 441.835 303.47 441.931C304.72 442.141 305.835 443.48 305.775 444.725C305.778 445.667 304.786 446.128 303.482 445.7Z" fill="#012C3D"/>
<path d="M265.205 426.28C263.015 425.807 262.511 424.886 263.541 423.282C264.253 422.252 265.16 422.195 265.973 423.064C266.295 423.431 266.574 424.001 266.682 424.437C266.865 424.991 267.454 425.508 266.826 426.134C266.412 426.691 265.739 426.578 265.205 426.28Z" fill="#012C3D"/>
<path d="M274.94 408.654C275.15 407.648 275.829 407.242 276.807 407.302C277.976 407.394 278.67 408.343 278.472 409.767C278.317 410.99 277.5 411.582 276.543 411.421C275.586 411.26 274.785 409.877 274.94 408.654Z" fill="#012C3D"/>
<path d="M267.826 434.763C268.631 434.813 269.264 435.237 269.859 435.858C270.614 436.712 270.405 437.283 269.311 437.688C268.783 437.792 268.334 438.013 267.806 438.117C266.964 438.264 265.969 438.687 265.546 437.692C265.343 437.145 264.864 436.444 265.405 435.732C265.965 434.922 266.745 434.56 267.826 434.763Z" fill="#012C3D"/>
<path d="M286.697 439.678C286.487 440.691 284.789 441.663 283.634 441.469C282.574 441.291 281.972 440.351 282.183 439.339C282.373 438.427 283.739 437.608 284.66 437.973C285.484 438.321 286.523 438.6 286.697 439.678Z" fill="#012C3D"/>
<path d="M263.199 455.081C263.36 455.732 263.5 456.483 263.566 457.118C263.581 458.471 262.766 459.062 261.727 459.303C260.688 459.544 260.165 458.729 259.834 457.946C259.449 456.946 260.135 456.022 261.016 456.066C262.013 456.025 262.211 454.603 263.199 455.081Z" fill="#012C3D"/>
<path d="M314.944 451.807C315.133 450.898 316.187 450.134 317.148 450.296C318.205 450.473 319.223 451.794 319.034 452.703C318.866 453.511 317.62 454.243 316.659 454.081C315.698 453.92 314.755 452.716 314.944 451.807Z" fill="#012C3D"/>
<path d="M293.453 416.128C294.707 416.339 295.868 417.48 295.678 418.394C295.53 419.105 294.322 419.637 293.26 419.458C292.006 419.248 291.039 418.139 291.346 417.14C291.675 416.039 292.564 416.084 293.453 416.128Z" fill="#012C3D"/>
<path d="M297.823 384.973C299.056 383.822 300.08 383.681 301.148 384.278C302.484 385.025 302.511 386.805 301.202 387.839C300.362 388.534 299.615 388.304 299.441 387.23C299.266 386.156 298.72 385.437 297.823 384.973Z" fill="#012C3D"/>
<path d="M268.837 449.066C268.731 449.572 268.572 449.859 268.028 450.081C267.271 450.372 266.481 450.344 265.775 449.912C264.897 449.346 264.444 447.701 265.017 446.856C265.591 446.01 266.649 446.188 267.656 447.09C268.758 448.007 268.888 448.343 268.837 449.066Z" fill="#012C3D"/>
<path d="M300.248 398.471C300.362 397.446 301.297 396.768 302.278 396.829C303.334 397.006 304.2 398.091 304.065 399.216C303.973 400.14 303.133 400.834 302.173 400.673C301.288 400.629 300.155 399.395 300.248 398.471Z" fill="#012C3D"/>
<path d="M282.627 452.775C281.547 452.699 281.054 452.197 281.189 451.068C281.303 450.04 282.593 449.105 283.556 449.266C284.443 449.311 285.655 450.666 285.507 451.375C285.318 452.285 283.974 453.002 282.627 452.775Z" fill="#012C3D"/>
<path d="M284.91 429.165C285.078 428.357 286.325 427.625 287.211 427.67C288.097 427.714 289.319 429.488 288.863 430.247C288.385 431.108 287.682 431.617 286.742 431.355C285.61 431.06 284.721 430.074 284.91 429.165Z" fill="#012C3D"/>
<path d="M288.523 394.236C288.795 392.931 289.598 391.922 290.478 391.966C291.264 391.994 292.222 393.091 292.13 394.011C292.037 394.93 290.27 396.297 289.335 396.036C288.496 395.791 288.239 395.124 288.523 394.236Z" fill="#012C3D"/>
<path d="M263.827 410.937C263.954 410.329 264.498 410.106 265.022 409.985C266.165 409.758 267.956 411.211 268.013 412.374C267.971 412.577 268.025 412.795 267.908 412.88C267.61 413.354 265.633 413.756 264.884 413.525C263.812 412.926 263.927 411.897 263.827 410.937Z" fill="#012C3D"/>
<path d="M289.359 467.374C289.112 466.194 288.982 464.93 289.611 463.794C290.261 462.558 291.273 462.417 292.035 463.477C293.074 465.101 291.92 466.873 289.359 467.374Z" fill="#012C3D"/>
<path d="M266.197 478.764C267.256 478.942 267.995 479.694 267.902 480.621C267.713 481.531 267.427 482.425 266.155 482.317C265.289 482.171 263.693 480.751 263.819 480.144C263.966 479.436 265.31 478.72 266.197 478.764Z" fill="#012C3D"/>
<path d="M322.502 461.372C322.574 460.547 323.725 459.799 324.708 459.859C325.787 459.936 326.848 461.056 326.659 461.966C326.449 462.977 325.745 463.487 324.741 463.527C323.834 463.584 322.43 462.197 322.502 461.372Z" fill="#012C3D"/>
<path d="M322.26 472.339C321.804 473.098 321.423 473.974 320.27 473.781C319.405 473.636 318.121 472.166 318.289 471.359C318.457 470.551 319.702 469.82 320.567 469.965C321.795 470.276 322.545 471.447 322.26 472.339Z" fill="#012C3D"/>
<path d="M286.331 472.888C287.607 472.997 288.241 473.314 288.458 474.192C288.621 474.851 288.343 475.225 287.873 475.566C287.146 476.181 286.407 476.372 285.719 475.835C285.031 475.299 283.743 474.767 284.051 473.766C284.422 472.461 285.752 472.79 286.331 472.888Z" fill="#012C3D"/>
<path d="M325.486 392.445C326.639 392.638 327.507 393.725 327.318 394.633C327.149 395.441 326 396.188 325.039 396.027C324.174 395.882 323.37 394.493 323.622 393.281C323.928 392.288 324.793 392.433 325.486 392.445Z" fill="#012C3D"/>
<path d="M301.65 461.833C302.491 462.078 303.442 463.695 303.158 464.585C302.99 465.389 301.058 466.106 300.163 465.643C299.173 465.165 299.478 464.175 299.667 463.27C299.993 462.179 300.905 461.604 301.65 461.833Z" fill="#012C3D"/>
<path d="M300.282 474.513C300.093 475.421 299.487 475.946 298.677 476.019C297.579 476.043 296.295 474.575 296.505 473.566C296.736 472.456 297.396 472.149 298.377 472.209C299.55 472.302 300.417 473.387 300.282 474.513Z" fill="#012C3D"/>
<path d="M258.415 471.436C258.88 470.157 259.657 469.765 260.263 469.24C260.965 468.732 261.667 468.223 262.309 468.957C262.876 469.575 263.017 470.329 262.636 471.205C262.138 472.166 261.382 472.456 260.497 472.412C259.729 472.283 259.555 471.21 258.415 471.436Z" fill="#012C3D"/>
<path d="M331.567 468.385C332.336 468.514 334.135 470.385 334.009 470.992C333.82 471.901 333.234 472.326 332.252 472.266C330.981 472.157 329.791 470.702 330.022 469.59C330.169 468.882 330.872 468.373 331.567 468.385Z" fill="#012C3D"/>
<path d="M305.033 414.575C304.895 414.761 304.757 414.947 304.522 415.116C303.49 415.779 301.877 415.404 301.415 414.281C301.007 413.376 301.175 412.569 302.015 411.874C302.718 411.365 303.348 411.68 303.82 412.281C304.387 412.899 305.051 413.533 305.033 414.575Z" fill="#012C3D"/>
<path d="M292.344 404.228C293.377 404.506 294.317 405.706 294.128 406.612C293.94 407.518 292.91 408.178 291.973 407.917C290.94 407.639 290.416 406.822 290.721 405.831C290.931 404.824 291.386 404.067 292.344 404.228Z" fill="#012C3D"/>
<path d="M295.406 452.932C296.317 453.292 296.742 454.09 296.936 455.055C297.15 455.921 297.058 456.839 296.225 457.528C295.76 457.865 295.284 457.785 294.87 457.404C294.308 456.791 293.665 454.194 294.076 453.641C294.275 453.156 294.718 452.92 295.406 452.932Z" fill="#012C3D"/>
<path d="M277.021 418.623C277.209 417.718 278.321 416.656 279.086 416.785C279.851 416.913 280.598 418.079 280.506 419C280.392 420.021 279.439 420.797 278.461 420.737C277.58 420.693 276.832 419.527 277.021 418.623Z" fill="#012C3D"/>
<path d="M316 410.4C316.862 410.545 317.568 411.913 317.359 412.919C317.149 413.925 316.491 414.231 315.608 414.187C314.343 414.079 313.702 413.346 313.891 412.441C314.026 411.318 315.139 410.255 316 410.4Z" fill="#012C3D"/>
<path d="M313.301 393.85C313.154 394.553 312.668 394.991 311.978 394.979C310.886 395.003 310.713 393.935 310.265 393.236C309.817 392.538 309.985 391.734 310.629 391.011C311.232 390.489 311.847 390.385 312.411 390.999C312.954 391.714 313.351 393.131 313.301 393.85Z" fill="#012C3D"/>
<path d="M278.34 445.068C278.193 445.775 277.766 445.913 277.169 445.917C275.994 445.824 274.591 444.438 274.759 443.63C274.949 442.721 275.651 442.211 276.517 442.357C277.691 442.449 278.592 443.856 278.34 445.068Z" fill="#012C3D"/>
<path d="M274.042 472.887C273.964 471.831 274.581 471.726 275.348 471.855C276.595 472.064 277.577 473.063 277.197 473.938C276.816 474.812 276.094 475.421 275.115 475.36C274.039 475.284 273.632 474.382 274.042 472.887Z" fill="#012C3D"/>
<path d="M328.619 477.382C329.387 477.511 329.955 478.128 329.745 479.138C329.534 480.147 328.907 480.773 327.947 480.611C326.966 480.551 326.098 479.465 326.245 478.759C326.317 477.935 327.446 477.289 328.619 477.382Z" fill="#012C3D"/>
<path d="M295.961 444.646C295.066 446.07 294.792 447.389 293.133 447.215C292.265 447.069 291.75 446.667 291.533 445.791C291.37 445.134 291.689 444.558 292.277 444.132C292.843 443.807 293.346 443.787 293.626 444.359C293.994 445.47 294.837 444.772 295.961 444.646Z" fill="#012C3D"/>
<path d="M313.097 420.445C314.422 420.771 315.289 421.858 314.887 422.835C314.623 423.627 314.037 424.051 313.29 423.821C312.233 423.644 311.311 422.339 311.521 421.329C311.71 420.421 312.35 420.214 313.097 420.445Z" fill="#012C3D"/>
<path d="M314.12 440.367C314.888 440.496 315.659 441.565 315.512 442.272C315.365 442.978 314.195 443.826 313.426 443.697C312.466 443.536 311.791 442.482 311.98 441.574C312.223 440.884 313.255 440.222 314.12 440.367Z" fill="#012C3D"/>
<path d="M319.19 485.891C320.055 486.037 320.731 487.091 320.563 487.899C320.394 488.707 319.094 489.22 318.154 488.958C317.214 488.695 316.86 488.009 317.145 487.116C317.472 486.021 318.304 485.847 319.19 485.891Z" fill="#012C3D"/>
<path d="M290.159 485.403C289.447 484.557 289.328 483.707 290.204 482.816C290.964 482.01 291.664 482.439 292.248 482.952C293.097 483.614 292.889 484.617 292.68 485.619C292.534 486.321 292.239 486.791 291.53 486.879C290.651 486.835 290.162 486.338 290.159 485.403C290.329 485.536 290.383 485.752 290.648 485.901C290.892 486.149 291.253 486.314 291.527 485.945C291.78 485.676 291.864 485.275 291.64 484.926C291.417 484.577 290.994 484.713 290.761 484.882C290.529 485.05 290.392 485.235 290.159 485.403Z" fill="#012C3D"/>
<path d="M315.765 403.567C315.501 404.358 314.938 404.681 314.17 404.552C313.019 404.358 312.248 403.29 312.65 402.314C312.956 401.322 313.786 401.148 314.554 401.277C315.321 401.406 315.996 402.458 315.765 403.567Z" fill="#012C3D"/>
<path d="M304.989 433.766C305.261 432.455 306.122 431.661 306.985 431.806C307.965 431.866 308.66 432.818 308.451 433.825C308.241 434.833 307.327 435.41 306.292 435.132C305.525 435.003 305.034 434.503 304.989 433.766Z" fill="#012C3D"/>
<path d="M326.403 439.42C326.575 439.554 327.154 439.651 327.476 440.02C327.971 440.524 328.305 441.316 327.868 441.978C327.431 442.64 326.756 442.526 325.984 442.396C325.041 442.133 325.059 441.085 324.233 440.736C323.868 440.57 324.209 439.891 324.561 439.635C325.053 439.193 325.556 439.172 326.403 439.42Z" fill="#012C3D"/>
<path d="M272.283 455.578C272.811 454.939 272.704 454.506 272.31 454.024C272.066 453.776 271.937 453.442 272.382 453.206C272.594 453.137 272.901 453.085 273.092 453.117C273.569 453.197 275.147 456.059 274.947 456.545C274.589 457.315 273.879 457.404 273.19 457.392C272.48 457.48 272.066 457.099 272.021 456.365C271.967 456.148 272.146 455.762 272.283 455.578Z" fill="#012C3D"/>
<path d="M296.446 434.301C297.021 434.398 297.897 435.898 297.867 436.517C297.637 437.624 296.745 438.098 295.501 437.89C294.449 437.713 294.404 436.977 294.571 436.172C294.685 435.15 295.681 434.173 296.446 434.301Z" fill="#012C3D"/>
<path d="M273.222 465.861C273.171 466.584 272.02 467.332 271.155 467.187C270.386 467.058 269.443 465.853 269.611 465.045C269.779 464.237 270.365 463.812 271.155 463.84C272.137 463.901 273.39 465.052 273.222 465.861Z" fill="#012C3D"/>
<path d="M316.392 385.939C315.903 385.877 315.22 386.07 315.163 385.085C315.005 383.527 315.627 382.265 316.592 382.142C317.418 382.025 318.01 382.659 318.066 383.644C318.141 384.959 317.501 385.892 316.392 385.939Z" fill="#012C3D"/>
<path d="M110.669 122.257C110.256 121.493 111.131 120.202 112.299 119.714C113.587 119.187 115.481 119.585 115.81 120.488C116.176 121.491 115.673 122.325 114.542 122.914C113.374 123.402 111.082 123.02 110.669 122.257Z" fill="#C4C4C4"/>
<path d="M413.161 172.467C439.275 172.467 460.445 151.32 460.445 125.234C460.445 99.1477 439.275 78.0007 413.161 78.0007C387.047 78.0007 365.878 99.1477 365.878 125.234C365.878 151.32 387.047 172.467 413.161 172.467Z" stroke="#012C3D" stroke-width="2.6906" stroke-miterlimit="10"/>
<path d="M352.008 258.116C369.766 258.116 384.161 243.736 384.161 225.998C384.161 208.259 369.766 193.879 352.008 193.879C334.251 193.879 319.855 208.259 319.855 225.998C319.855 243.736 334.251 258.116 352.008 258.116Z" stroke="#012C3D" stroke-width="3" stroke-miterlimit="10"/>
<path opacity="0.3" d="M344.254 205.719C367.025 205.719 385.485 187.279 385.485 164.532C385.485 141.785 367.025 123.344 344.254 123.344C321.482 123.344 303.022 141.785 303.022 164.532C303.022 187.279 321.482 205.719 344.254 205.719Z" fill="#78BDC4"/>
<path opacity="0.3" d="M109.097 324.746C127.691 324.746 142.763 309.69 142.763 291.116C142.763 272.543 127.691 257.487 109.097 257.487C90.5043 257.487 75.4316 272.543 75.4316 291.116C75.4316 309.69 90.5043 324.746 109.097 324.746Z" fill="#78BDC4"/>
<path opacity="0.3" d="M321.6 65.8774C328.043 65.8774 333.266 60.6546 333.266 54.2119C333.266 47.7692 328.043 42.5464 321.6 42.5464C315.158 42.5464 309.935 47.7692 309.935 54.2119C309.935 60.6546 315.158 65.8774 321.6 65.8774Z" fill="#78BDC4"/>
<path d="M173.167 518.237L438.379 439.617" stroke="#012C3D" stroke-width="3" stroke-miterlimit="10"/>
<path d="M81.4518 221.219L224.878 77.9452" stroke="#012C3D" stroke-width="2" stroke-miterlimit="10"/>
<path d="M153.323 141.867H171.606" stroke="#012C3D" stroke-width="2" stroke-miterlimit="10"/>
<path d="M157.736 136.199H176.019" stroke="#012C3D" stroke-width="2" stroke-miterlimit="10"/>
<path d="M162.779 130.531H181.062" stroke="#012C3D" stroke-width="2" stroke-miterlimit="10"/>
<path d="M340.66 465.942H108.656V476.018H340.66V465.942Z" fill="#F75F4B"/>
<path d="M444.432 225.683L455.149 236.452" stroke="#012C3D" stroke-width="3" stroke-miterlimit="10"/>
<path d="M455.149 225.683L444.432 236.452" stroke="#012C3D" stroke-width="3" stroke-miterlimit="10"/>
<path d="M11.0565 430.324C16.6105 430.324 21.1129 425.821 21.1129 420.267C21.1129 414.713 16.6105 410.211 11.0565 410.211C5.50243 410.211 1 414.713 1 420.267C1 425.821 5.50243 430.324 11.0565 430.324Z" stroke="#012C3D" stroke-width="2" stroke-miterlimit="10"/>
<path d="M28.1158 384.466L38.8334 395.235" stroke="#F7444F" stroke-width="3" stroke-miterlimit="10"/>
<path d="M38.8334 384.466L28.1158 395.235" stroke="#F7444F" stroke-width="3" stroke-miterlimit="10"/>
</svg>
