<svg width="32" height="32" viewBox="0 0 32 32" fill="none" xmlns="http://www.w3.org/2000/svg">
<path opacity="0.8" d="M29 3H5V27H29V3Z" fill="#F7444F"/>
<path d="M17 29C18.1046 29 19 28.1046 19 27C19 25.8954 18.1046 25 17 25C15.8954 25 15 25.8954 15 27C15 28.1046 15.8954 29 17 29Z" fill="#012C3D"/>
<path d="M11 29C12.1046 29 13 28.1046 13 27C13 25.8954 12.1046 25 11 25C9.89543 25 9 25.8954 9 27C9 28.1046 9.89543 29 11 29Z" fill="#012C3D"/>
<path d="M5 29C6.10457 29 7 28.1046 7 27C7 25.8954 6.10457 25 5 25C3.89543 25 3 25.8954 3 27C3 28.1046 3.89543 29 5 29Z" fill="#012C3D"/>
<path d="M17 23C18.1046 23 19 22.1046 19 21C19 19.8954 18.1046 19 17 19C15.8954 19 15 19.8954 15 21C15 22.1046 15.8954 23 17 23Z" fill="#012C3D"/>
<path d="M11 23C12.1046 23 13 22.1046 13 21C13 19.8954 12.1046 19 11 19C9.89543 19 9 19.8954 9 21C9 22.1046 9.89543 23 11 23Z" fill="#012C3D"/>
<path d="M5 23C6.10457 23 7 22.1046 7 21C7 19.8954 6.10457 19 5 19C3.89543 19 3 19.8954 3 21C3 22.1046 3.89543 23 5 23Z" fill="#012C3D"/>
<path d="M17 17C18.1046 17 19 16.1046 19 15C19 13.8954 18.1046 13 17 13C15.8954 13 15 13.8954 15 15C15 16.1046 15.8954 17 17 17Z" fill="#012C3D"/>
<path d="M11 17C12.1046 17 13 16.1046 13 15C13 13.8954 12.1046 13 11 13C9.89543 13 9 13.8954 9 15C9 16.1046 9.89543 17 11 17Z" fill="#012C3D"/>
<path d="M5 17C6.10457 17 7 16.1046 7 15C7 13.8954 6.10457 13 5 13C3.89543 13 3 13.8954 3 15C3 16.1046 3.89543 17 5 17Z" fill="#012C3D"/>
</svg>
