<svg width="126" height="125" viewBox="0 0 126 125" fill="none" xmlns="http://www.w3.org/2000/svg">
<g clip-path="url(#clip0)">
<path d="M52.7001 111.6H25.4001C23.9001 111.6 22.7001 110.4 22.7001 108.9V49.1C22.7001 47.6 23.9001 46.4 25.4001 46.4H52.7001C54.2001 46.4 55.4001 47.6 55.4001 49.1V109C55.4001 110.4 54.2001 111.6 52.7001 111.6Z" stroke="#78BDC4" stroke-width="1.75" stroke-miterlimit="10"/>
<path d="M53.5 111.4H24.6C23.1 111.4 21.9 110.2 21.9 108.7V48.3C21.9 46.8 23.1 45.5 24.7 45.5H53.6C55.1 45.5 56.3 46.7 56.3 48.2V108.6C56.2 110.2 55 111.4 53.5 111.4Z" stroke="#274D5C" stroke-width="1.75" stroke-miterlimit="10"/>
<path d="M31.4 109.1H45.9" stroke="#78BDC4" stroke-width="1.1366" stroke-miterlimit="10" stroke-linecap="round" stroke-linejoin="round"/>
<path opacity="0.5" d="M47.9 101.7H29.7C28.6 101.7 27.8 100.8 27.8 99.8V57.5C27.8 56.4 28.7 55.6 29.7 55.6H47.9C49 55.6 49.8 56.5 49.8 57.5V99.8C49.8 100.9 49 101.7 47.9 101.7Z" fill="#78BDC4"/>
<path opacity="0.9" d="M48.5001 103.4H29.1001C27.5001 103.4 26.2001 102.1 26.2001 100.5V56.7C26.2001 55.1 27.5001 53.8 29.1001 53.8H48.5001C50.1001 53.8 51.4001 55.1 51.4001 56.7V100.5C51.4001 102.1 50.1001 103.4 48.5001 103.4Z" stroke="#274D5C" stroke-width="1.5" stroke-miterlimit="10" stroke-linecap="round"/>
<path d="M102.6 112H66.1C64.7 112 63.5 110.9 63.5 109.4V48.7C63.5 47.3 64.6 46.1 66.1 46.1H102.6C104 46.1 105.2 47.2 105.2 48.7V109.5C105.2 110.9 104 112 102.6 112Z" stroke="#78BDC4" stroke-width="1.4916" stroke-linecap="round" stroke-linejoin="round" stroke-dasharray="3.75 3.75"/>
<path d="M102.6 111.4H66.1C64.7 111.4 63.5 110.3 63.5 108.8V48.1C63.5 46.7 64.6 45.5 66.1 45.5H102.6C104 45.5 105.2 46.6 105.2 48.1V108.9C105.2 110.2 104 111.4 102.6 111.4Z" stroke="#274D5C" stroke-width="1.4916" stroke-linecap="round" stroke-linejoin="round" stroke-dasharray="3.75 3.75"/>
<path d="M72.9 63.2H42.4" stroke="#274D5C" stroke-width="1.3793" stroke-miterlimit="10" stroke-linecap="round" stroke-linejoin="round"/>
<path d="M42.4 63.2L47.2 61.2" stroke="#274D5C" stroke-width="1.3793" stroke-miterlimit="10" stroke-linecap="round" stroke-linejoin="round"/>
<path d="M47.2 65.2L42.4 63.2" stroke="#274D5C" stroke-width="1.3793" stroke-miterlimit="10" stroke-linecap="round" stroke-linejoin="round"/>
<path d="M42.4 95.8H72.9" stroke="#274D5C" stroke-width="1.3793" stroke-miterlimit="10" stroke-linecap="round" stroke-linejoin="round"/>
<path d="M72.9 95.8L68.1 97.8" stroke="#274D5C" stroke-width="1.3793" stroke-miterlimit="10" stroke-linecap="round" stroke-linejoin="round"/>
<path d="M68.1 93.8L72.9 95.8" stroke="#274D5C" stroke-width="1.3793" stroke-miterlimit="10" stroke-linecap="round" stroke-linejoin="round"/>
<path opacity="0.5" d="M79.1001 93.9H76.1001C75.6001 93.9 75.2001 93.5 75.2001 93V79.2C75.2001 78.7 75.6001 78.3 76.1001 78.3H79.1001C79.6001 78.3 80.0001 78.7 80.0001 79.2V93C80.0001 93.5 79.6001 93.9 79.1001 93.9Z" fill="#78BDC4"/>
<path opacity="0.5" d="M86.4001 93.9H83.5001C83.0001 93.9 82.7001 93.5 82.7001 93.1V75.8C82.7001 75.3 83.1001 75 83.5001 75H86.4001C86.9001 75 87.2001 75.4 87.2001 75.8V93.1C87.2001 93.5 86.9001 93.9 86.4001 93.9Z" fill="#78BDC4"/>
<path opacity="0.5" d="M94.1 93.9H91.3C90.8 93.9 90.5 93.5 90.5 93.1V71.1C90.5 70.6 90.9 70.3 91.3 70.3H94.1C94.6 70.3 94.9 70.7 94.9 71.1V93.1C95 93.5 94.6 93.9 94.1 93.9Z" fill="#78BDC4"/>
<path d="M78.9 93.2H76.3C75.9 93.2 75.5 92.8 75.5 92.4V79.1C75.5 78.7 75.9 78.3 76.3 78.3H78.9C79.3 78.3 79.7 78.7 79.7 79.1V92.4C79.7 92.8 79.4 93.2 78.9 93.2Z" fill="#274D5C"/>
<path d="M86.3 93.2H83.7C83.3 93.2 82.9 92.8 82.9 92.4V75.1C82.9 74.7 83.3 74.3 83.7 74.3H86.3C86.7 74.3 87.1 74.7 87.1 75.1V92.4C87 92.8 86.7 93.2 86.3 93.2Z" fill="#274D5C"/>
<path d="M94 93.2H91.4C91 93.2 90.6 92.8 90.6 92.4V70.3C90.6 69.9 91 69.5 91.4 69.5H94C94.4 69.5 94.8 69.9 94.8 70.3V92.4C94.8 92.8 94.4 93.2 94 93.2Z" fill="#274D5C"/>
<path d="M75.6 72.7999L78 70L80 71.4L84.3 67L87 68.9L90.6 62.5L94.8 59.7" stroke="#78BDC4" stroke-miterlimit="10" stroke-linecap="round" stroke-linejoin="round"/>
<path d="M75.6 72.2L78 69.4L80 70.8L84.3 66.4L87 68.3L90.6 61.9L94.8 59.1" stroke="#274D5C" stroke-miterlimit="10" stroke-linecap="round" stroke-linejoin="round"/>
</g>
<defs>
<clipPath id="clip0">
<rect x="21" y="31" width="84.9" height="81.7" fill="white"/>
</clipPath>
</defs>
</svg>
