<svg width="126" height="125" viewBox="0 0 126 125" fill="none" xmlns="http://www.w3.org/2000/svg">
<path opacity="0.5" d="M98.8 50.9H91.8C90.3 50.9 89.1 49.7 89.1 48.2V44.1C89.1 42.6 90.3 41.4 91.8 41.4H98.8C100.3 41.4 101.5 42.6 101.5 44.1V48.2C101.6 49.7 100.3 50.9 98.8 50.9Z" fill="#012C3D"/>
<path opacity="0.25" d="M99.7999 51.9V111.6" stroke="#5C7F8C" stroke-width="2" stroke-miterlimit="10" stroke-linecap="round"/>
<path opacity="0.25" d="M24.7999 50.9V110.6" stroke="#5C7F8C" stroke-width="2" stroke-miterlimit="10" stroke-linecap="round"/>
<path opacity="0.2" d="M101.4 51.2H94.4C92.9 51.2 91.7 52 91.7 50.5V46.4C91.7 44.9 92.9 43.7 94.4 43.7H101.4C102.9 43.7 102.1 44.9 102.1 46.4V49.5C102.2 51 102.9 51.2 101.4 51.2Z" fill="#D1D3D4"/>
<path d="M97.4 112.5H27.7C25.4 112.5 23.6 110.6 23.6 108.4V50.9V45.5C23.6 43.2 25.5 41.4 27.7 41.4H97.4C99.7 41.4 101.5 43.3 101.5 45.5V108.3C101.6 110.6 99.7 112.5 97.4 112.5Z" stroke="#274D5C" stroke-width="2.0636" stroke-miterlimit="10"/>
<path d="M101.6 50.9H23.6" stroke="#274D5C" stroke-width="2.0636" stroke-miterlimit="10"/>
<path d="M89.1 41.4V50.9" stroke="#274D5C" stroke-width="2.0636" stroke-miterlimit="10"/>
<path d="M30.4999 47.4C31.1627 47.4 31.6999 46.8627 31.6999 46.2C31.6999 45.5373 31.1627 45 30.4999 45C29.8372 45 29.2999 45.5373 29.2999 46.2C29.2999 46.8627 29.8372 47.4 30.4999 47.4Z" fill="#012C3D"/>
<path d="M34.4999 47.4C35.1627 47.4 35.6999 46.8627 35.6999 46.2C35.6999 45.5373 35.1627 45 34.4999 45C33.8372 45 33.2999 45.5373 33.2999 46.2C33.2999 46.8627 33.8372 47.4 34.4999 47.4Z" fill="#012C3D"/>
<path d="M38.4999 47.4C39.1627 47.4 39.6999 46.8627 39.6999 46.2C39.6999 45.5373 39.1627 45 38.4999 45C37.8372 45 37.2999 45.5373 37.2999 46.2C37.2999 46.8627 37.8372 47.4 38.4999 47.4Z" fill="#012C3D"/>
<path d="M33.2999 58.9H46.6999" stroke="#274D5C" stroke-width="2" stroke-miterlimit="10" stroke-linecap="round"/>
<path d="M51.2999 58.9H59.6999" stroke="#5C7F8C" stroke-width="2" stroke-miterlimit="10" stroke-linecap="round"/>
<path d="M33.2999 63.9H35.6999" stroke="#274D5C" stroke-width="2" stroke-miterlimit="10" stroke-linecap="round"/>
<path d="M40.2999 63.9H48.6999" stroke="#274D5C" stroke-width="2" stroke-miterlimit="10" stroke-linecap="round"/>
<path d="M53.5 63.9H72" stroke="#274D5C" stroke-width="2" stroke-miterlimit="10" stroke-linecap="round"/>
<path d="M76.2 63.9H80.6999" stroke="#274D5C" stroke-width="2" stroke-miterlimit="10" stroke-linecap="round"/>
<path d="M33.2999 68.9H41.6999" stroke="#5C7F8C" stroke-width="2" stroke-miterlimit="10" stroke-linecap="round"/>
<path d="M46.2999 68.9H59.6999" stroke="#274D5C" stroke-width="2" stroke-miterlimit="10" stroke-linecap="round"/>
<path d="M64 68.9H69.4" stroke="#274D5C" stroke-width="2" stroke-miterlimit="10" stroke-linecap="round"/>
<path d="M33.2999 73.9H35.6999" stroke="#274D5C" stroke-width="2" stroke-miterlimit="10" stroke-linecap="round"/>
<path d="M40.2999 73.9H48.6999" stroke="#274D5C" stroke-width="2" stroke-miterlimit="10" stroke-linecap="round"/>
<path d="M53.5 73.9H55" stroke="#414042" stroke-width="2" stroke-miterlimit="10" stroke-linecap="round"/>
<path d="M59.5 73.9H71" stroke="#274D5C" stroke-width="2" stroke-miterlimit="10" stroke-linecap="round"/>
<path d="M75.2 73.9H90.6999" stroke="#274D5C" stroke-width="2" stroke-miterlimit="10" stroke-linecap="round"/>
<path d="M33.2999 86.9H46.6999" stroke="#274D5C" stroke-width="2" stroke-miterlimit="10" stroke-linecap="round"/>
<path d="M51.2999 86.9H59.6999" stroke="#274D5C" stroke-width="2" stroke-miterlimit="10" stroke-linecap="round"/>
<path d="M33.2999 91.9H35.6999" stroke="#274D5C" stroke-width="2" stroke-miterlimit="10" stroke-linecap="round"/>
<path d="M40.2999 91.9H48.6999" stroke="#274D5C" stroke-width="2" stroke-miterlimit="10" stroke-linecap="round"/>
<path d="M53.5 91.9H62" stroke="#274D5C" stroke-width="2" stroke-miterlimit="10" stroke-linecap="round"/>
<path d="M67.2 91.9H80.6999" stroke="#274D5C" stroke-width="2" stroke-miterlimit="10" stroke-linecap="round"/>
<path d="M33.2999 96.9H41.6999" stroke="#5C7F8C" stroke-width="2" stroke-miterlimit="10" stroke-linecap="round"/>
<path d="M46.2999 96.9H59.6999" stroke="#274D5C" stroke-width="2" stroke-miterlimit="10" stroke-linecap="round"/>
<path d="M64 96.9H69.4" stroke="#274D5C" stroke-width="2" stroke-miterlimit="10" stroke-linecap="round"/>
<path d="M33.2999 101.9H35.6999" stroke="#274D5C" stroke-width="2" stroke-miterlimit="10" stroke-linecap="round"/>
<path d="M40.2999 101.9H58.6999" stroke="#274D5C" stroke-width="2" stroke-miterlimit="10" stroke-linecap="round"/>
<path d="M64.5 86.9H66.9" stroke="black" stroke-width="2" stroke-miterlimit="10" stroke-linecap="round"/>
<path d="M72 86.9H84.5" stroke="#274D5C" stroke-width="2" stroke-miterlimit="10" stroke-linecap="round"/>
<path d="M74.5 96.8H87.9" stroke="#414042" stroke-width="2" stroke-miterlimit="10" stroke-linecap="round"/>
</svg>
