<svg width="125" height="125" viewBox="0 0 125 125" fill="none" xmlns="http://www.w3.org/2000/svg">
<g clip-path="url(#clip0)">
<path d="M93 112.8H29.2C26.9 112.8 25.1 111 25.1 108.7V46.2C25.1 43.9 26.9 42.1 29.2 42.1H93C95.3 42.1 97.1 43.9 97.1 46.2V108.7C97.2 111 95.3 112.8 93 112.8Z" stroke="#78BDC4" stroke-width="1.839" stroke-miterlimit="10"/>
<path d="M94 112.8H28.3C26 112.8 24.1 110.9 24.1 108.6V45.3C24.1 43 26 41.1 28.3 41.1H94C96.3 41.1 98.2 43 98.2 45.3V108.7C98.2 111 96.3 112.8 94 112.8Z" stroke="#274D5C" stroke-width="2.1087" stroke-miterlimit="10"/>
<path d="M29.5 47.8C30.3284 47.8 31 47.1284 31 46.3C31 45.4716 30.3284 44.8 29.5 44.8C28.6716 44.8 28 45.4716 28 46.3C28 47.1284 28.6716 47.8 29.5 47.8Z" fill="#274D5C"/>
<path d="M34.2999 47.8C35.1284 47.8 35.7999 47.1284 35.7999 46.3C35.7999 45.4716 35.1284 44.8 34.2999 44.8C33.4715 44.8 32.7999 45.4716 32.7999 46.3C32.7999 47.1284 33.4715 47.8 34.2999 47.8Z" fill="#274D5C"/>
<path d="M39.1 47.8C39.9284 47.8 40.6 47.1284 40.6 46.3C40.6 45.4716 39.9284 44.8 39.1 44.8C38.2715 44.8 37.6 45.4716 37.6 46.3C37.6 47.1284 38.2715 47.8 39.1 47.8Z" fill="#78BDC4"/>
<path opacity="0.5" d="M48.5 53.2V107C48.5 108.3 47.5 109.3 46.2 109.3H30.2C29 109.3 28 108.3 28 107V53.2C28 51.9 29 50.9 30.3 50.9H46.3C47.5 50.9 48.5 51.9 48.5 53.2Z" fill="#78BDC4"/>
<path d="M38.3 61C40.012 61 41.4 59.6121 41.4 57.9C41.4 56.1879 40.012 54.8 38.3 54.8C36.5879 54.8 35.2 56.1879 35.2 57.9C35.2 59.6121 36.5879 61 38.3 61Z" fill="#1C9DA3"/>
<path opacity="0.5" d="M71.1 52V62.9C71.1 63.5 70.6 64 70 64H51.7C51.1 64 50.6 63.5 50.6 62.9V52C50.6 51.4 51.1 50.9 51.7 50.9H70C70.6 50.9 71.1 51.4 71.1 52Z" fill="#78BDC4"/>
<path opacity="0.5" d="M94.1999 52V62.9C94.1999 63.5 93.6999 64 93.0999 64H74.7999C74.1999 64 73.7 63.5 73.7 62.9V52C73.7 51.4 74.1999 50.9 74.7999 50.9H93.1999C93.7999 50.9 94.1999 51.4 94.1999 52Z" fill="#78BDC4"/>
<path opacity="0.5" d="M94.2 97.6V107.5C94.2 108.4 93.5 109.1 92.6 109.1H52.2C51.3 109.1 50.6 108.4 50.6 107.5V97.6C50.6 96.7 51.3 96 52.2 96H92.7C93.5 96 94.2 96.8 94.2 97.6Z" fill="#78BDC4"/>
<g opacity="0.9">
<path opacity="0.9" d="M92 68.4C92.4 68.4 92.7 68.7 92.7 69.1V91.2C92.7 91.6 92.4 91.9 92 91.9H52.8C52.4 91.9 52.1 91.6 52.1 91.2V69.1C52.1 68.7 52.4 68.4 52.8 68.4H92ZM92 66.9H52.8C51.6 66.9 50.6 67.9 50.6 69.1V91.2C50.6 92.4 51.6 93.4 52.8 93.4H92C93.2 93.4 94.2 92.4 94.2 91.2V69.1C94.2 67.9 93.2 66.9 92 66.9Z" fill="#274D5C"/>
</g>
<path opacity="0.5" d="M92.0999 69.7V90.7999C92.0999 91.0999 91.8999 91.2999 91.5999 91.2999H53.2999C52.9999 91.2999 52.7999 91.0999 52.7999 90.7999V69.7C52.7999 69.4 52.9999 69.2 53.2999 69.2H91.5999C91.8999 69.2 92.0999 69.4 92.0999 69.7Z" fill="#78BDC4"/>
<path opacity="0.3" d="M78.6 77.6H86.3" stroke="#012C3D" stroke-width="0.75" stroke-miterlimit="10" stroke-linecap="round"/>
<path opacity="0.3" d="M78.6 80.2H84.1" stroke="#012C3D" stroke-width="0.75" stroke-miterlimit="10" stroke-linecap="round"/>
<path opacity="0.3" d="M78.6 82.8H84.8" stroke="#012C3D" stroke-width="0.75" stroke-miterlimit="10" stroke-linecap="round"/>
<path opacity="0.6" d="M60 84.5C58.8 83.4 58 81.8 58 80C58 77.5 59.5 75.4 61.6 74.5" stroke="#012C3D" stroke-width="2" stroke-miterlimit="10"/>
<path d="M65.5 85.8C65 85.9 64.5 86 63.9 86C62.4 86 61 85.4 60 84.5" stroke="#274D5C" stroke-width="2" stroke-miterlimit="10"/>
<path d="M69.1 77.1C69.6 78 69.9 79 69.9 80.1C69.9 82.8 68.1 85.1 65.6 85.8" stroke="#D3E3E3" stroke-width="2" stroke-miterlimit="10"/>
<path d="M61.6 74.6C62.3 74.3 63.1 74.1 63.9 74.1C64.3 74.1 64.7 74.1 65.1 74.2" stroke="#1C9DA3" stroke-width="2" stroke-miterlimit="10"/>
<path d="M65.1 74.2C66.8 74.5 68.2 75.5999 69.1 77.0999" stroke="#78BDC4" stroke-width="2" stroke-miterlimit="10"/>
<path d="M75.9999 78.3C76.3865 78.3 76.6999 77.9866 76.6999 77.6C76.6999 77.2134 76.3865 76.9 75.9999 76.9C75.6133 76.9 75.2999 77.2134 75.2999 77.6C75.2999 77.9866 75.6133 78.3 75.9999 78.3Z" fill="#1C9DA3"/>
<path d="M75.9999 80.8999C76.3865 80.8999 76.6999 80.5865 76.6999 80.1999C76.6999 79.8133 76.3865 79.4999 75.9999 79.4999C75.6133 79.4999 75.2999 79.8133 75.2999 80.1999C75.2999 80.5865 75.6133 80.8999 75.9999 80.8999Z" fill="#274D5C"/>
<path opacity="0.6" d="M75.9999 83.5C76.3865 83.5 76.6999 83.1866 76.6999 82.8C76.6999 82.4134 76.3865 82.1 75.9999 82.1C75.6133 82.1 75.2999 82.4134 75.2999 82.8C75.2999 83.1866 75.6133 83.5 75.9999 83.5Z" fill="#012C3D"/>
<path opacity="0.9" d="M34.6 64.5H41.9" stroke="#274D5C" stroke-width="1.5" stroke-miterlimit="10" stroke-linecap="round"/>
<path opacity="0.3" d="M34.1 69.2H42.4" stroke="#012C3D" stroke-width="1.5" stroke-miterlimit="10" stroke-linecap="round"/>
</g>
<defs>
<clipPath id="clip0">
<rect x="23" y="40" width="76.3" height="73.9" fill="white"/>
</clipPath>
</defs>
</svg>
