<svg width="126" height="125" viewBox="0 0 126 125" fill="none" xmlns="http://www.w3.org/2000/svg">
<g clip-path="url(#clip0)">
<path d="M94 112.8H30.2C27.9 112.8 26.1 111 26.1 108.7V46.2C26.1 43.9 27.9 42.1 30.2 42.1H94C96.3 42.1 98.1 43.9 98.1 46.2V108.7C98.2 111 96.3 112.8 94 112.8Z" stroke="#78BDC4" stroke-width="1.839" stroke-miterlimit="10"/>
<path d="M95 112.8H29.3C27 112.8 25.1 110.9 25.1 108.6V45.3C25.1 43 27 41.1 29.3 41.1H95C97.3 41.1 99.2 43 99.2 45.3V108.7C99.2 111 97.3 112.8 95 112.8Z" stroke="#274D5C" stroke-width="2.1087" stroke-miterlimit="10"/>
<path d="M30.5 47.8C31.3284 47.8 32 47.1284 32 46.3C32 45.4716 31.3284 44.8 30.5 44.8C29.6716 44.8 29 45.4716 29 46.3C29 47.1284 29.6716 47.8 30.5 47.8Z" fill="#274D5C"/>
<path d="M35.2999 47.8C36.1284 47.8 36.7999 47.1284 36.7999 46.3C36.7999 45.4716 36.1284 44.8 35.2999 44.8C34.4715 44.8 33.7999 45.4716 33.7999 46.3C33.7999 47.1284 34.4715 47.8 35.2999 47.8Z" fill="#274D5C"/>
<path d="M40.1 47.8C40.9284 47.8 41.6 47.1284 41.6 46.3C41.6 45.4716 40.9284 44.8 40.1 44.8C39.2715 44.8 38.6 45.4716 38.6 46.3C38.6 47.1284 39.2715 47.8 40.1 47.8Z" fill="#78BDC4"/>
<path d="M87.1 104.9H55.9C54.2 104.9 52.9 103.6 52.9 101.9V55.6C52.9 53.9 54.2 52.6 55.9 52.6H87C88.7 52.6 90 53.9 90 55.6V101.8C90.1 103.5 88.7 104.9 87.1 104.9Z" stroke="#78BDC4" stroke-width="1.4" stroke-miterlimit="10"/>
<path d="M87 103.9H55.9C54.2 103.9 52.9 102.5 52.9 100.9V55.6C52.9 53.9 54.3 52.6 55.9 52.6H87C88.7 52.6 90 54 90 55.6V100.8C90.1 102.5 88.7 103.9 87 103.9Z" fill="#D3E3E3" stroke="#274D5C" stroke-width="1.3254" stroke-miterlimit="10"/>
<path opacity="0.5" d="M86.2001 102.3H56.9001C55.8001 102.3 54.8 101.4 54.8 100.2V56.4C54.8 55.3 55.7001 54.3 56.9001 54.3H86.1C87.2 54.3 88.2 55.2 88.2 56.4V100.2C88.2 101.3 87.3001 102.3 86.2001 102.3Z" fill="#78BDC4"/>
<path d="M61.5 79.3V77.5L68.5 74.9V76.7L62.1 79V77.8L68.5 80.1V81.9L61.5 79.3Z" fill="#274D5C"/>
<path d="M71.7 83.0999H69.6L73.3 72.2H75.4L71.7 83.0999Z" fill="#274D5C"/>
<path d="M83.5 79.2999L76.5 81.8999V79.9999L82.9 77.6999V78.8999L76.5 76.5999V74.7999L83.5 77.3999V79.2999Z" fill="#1C9DA3"/>
<path opacity="0.9" d="M46.9 52.6V104.9" stroke="#6A8890" stroke-width="1.5" stroke-miterlimit="10" stroke-linecap="round"/>
<path d="M31.6 56.1H41.1" stroke="#274D5C" stroke-width="1.5" stroke-miterlimit="10" stroke-linecap="round"/>
<path opacity="0.5" d="M31.5 93.7H36.5" stroke="#012C3D" stroke-width="1.5" stroke-miterlimit="10" stroke-linecap="round"/>
<path opacity="0.9" d="M31.5 60.8H38.9" stroke="#274D5C" stroke-width="1.5" stroke-miterlimit="10" stroke-linecap="round"/>
<path d="M31.5 70.2H38.9" stroke="#1C9DA3" stroke-width="1.5" stroke-miterlimit="10" stroke-linecap="round"/>
<path opacity="0.5" d="M31.5 103.1H36.8" stroke="#012C3D" stroke-width="1.5" stroke-miterlimit="10" stroke-linecap="round"/>
<path opacity="0.5" d="M31.5 74.9H36.8" stroke="#012C3D" stroke-width="1.5" stroke-miterlimit="10" stroke-linecap="round"/>
<path d="M31.5 65.5H39.8" stroke="#78BDC4" stroke-width="1.5" stroke-miterlimit="10" stroke-linecap="round"/>
<path opacity="0.9" d="M31.5 79.6H38.9" stroke="#274D5C" stroke-width="1.5" stroke-miterlimit="10" stroke-linecap="round"/>
<path d="M31.5 84.3H39.8" stroke="#1C9DA3" stroke-width="1.5" stroke-miterlimit="10" stroke-linecap="round"/>
<path opacity="0.9" d="M31.5 98.4H38.9" stroke="#274D5C" stroke-width="1.5" stroke-miterlimit="10" stroke-linecap="round"/>
<path opacity="0.9" d="M31.5 89H34.1" stroke="#274D5C" stroke-width="1.5" stroke-miterlimit="10" stroke-linecap="round"/>
</g>
<defs>
<clipPath id="clip0">
<rect x="24" y="40" width="76.3" height="73.9" fill="white"/>
</clipPath>
</defs>
</svg>
