<svg width="126" height="125" viewBox="0 0 126 125" fill="none" xmlns="http://www.w3.org/2000/svg">
<g clip-path="url(#clip0)">
<path d="M60.7001 109.6H33.4001C31.9001 109.6 30.7001 108.4 30.7001 106.9V47.1C30.7001 45.6 31.9001 44.4 33.4001 44.4H60.7001C62.2001 44.4 63.4001 45.6 63.4001 47.1V107C63.4001 108.4 62.2001 109.6 60.7001 109.6Z" stroke="#78BDC4" stroke-width="1.75" stroke-miterlimit="10"/>
<path d="M61.5 109.4H32.6C31.1 109.4 29.9 108.2 29.9 106.7V46.3C29.9 44.8 31.1 43.5 32.7 43.5H61.6C63.1 43.5 64.3 44.7 64.3 46.2V106.6C64.2 108.2 63 109.4 61.5 109.4Z" stroke="#274D5C" stroke-width="1.75" stroke-miterlimit="10"/>
<path d="M81.8001 115.2H44.1001C43.0001 115.2 42.2001 114.3 42.2001 113.3V78.9C42.2001 77.8 43.1001 77 44.1001 77H81.9001C83.0001 77 83.8001 77.9 83.8001 78.9V113.3C83.8001 114.3 82.9001 115.2 81.8001 115.2Z" stroke="#274D5C" stroke-width="1.1366" stroke-linecap="round" stroke-linejoin="round" stroke-dasharray="5.67 5.67"/>
<path opacity="0.5" d="M57.1001 82.7H36.5001C35.2001 82.7 34.2001 81.7 34.2001 80.4V54.1C34.2001 52.8 35.2001 51.8 36.5001 51.8H57.2001C58.5001 51.8 59.5001 52.8 59.5001 54.1V80.4C59.4001 81.7 58.4001 82.7 57.1001 82.7Z" fill="#78BDC4"/>
<path d="M80.2001 59.1H46.8" stroke="#274D5C" stroke-width="1.3793" stroke-miterlimit="10" stroke-linecap="round" stroke-linejoin="round"/>
<path d="M80.9 71.4H64" stroke="#274D5C" stroke-width="1.3793" stroke-miterlimit="10" stroke-linecap="round" stroke-linejoin="round"/>
<path d="M91 83.7H64" stroke="#274D5C" stroke-width="1.3793" stroke-miterlimit="10" stroke-linecap="round" stroke-linejoin="round"/>
<path d="M91 96H52.5" stroke="#274D5C" stroke-width="1.3794" stroke-miterlimit="10" stroke-linecap="round" stroke-linejoin="round"/>
<path d="M80.2001 59.1C83.6001 59.1 86.3001 61.9 86.3001 65.2C86.3001 68.5 83.5001 71.3 80.2001 71.3" stroke="#274D5C" stroke-width="1.3793" stroke-miterlimit="10" stroke-linecap="round" stroke-linejoin="round"/>
<path d="M91 83.7C94.4 83.7 97.1 86.4999 97.1 89.7999C97.1 93.1999 94.3 95.9 91 95.9" stroke="#274D5C" stroke-width="1.3793" stroke-miterlimit="10" stroke-linecap="round" stroke-linejoin="round"/>
<path d="M64.1 83.7C60.7 83.7 58 80.9 58 77.6C58 74.3 60.8 71.5 64.1 71.5" stroke="#274D5C" stroke-width="1.3793" stroke-miterlimit="10" stroke-linecap="round" stroke-linejoin="round"/>
<path d="M86.3 68C87.6808 68 88.8 66.8807 88.8 65.5C88.8 64.1193 87.6808 63 86.3 63C84.9193 63 83.8 64.1193 83.8 65.5C83.8 66.8807 84.9193 68 86.3 68Z" fill="#78BDC4"/>
<path d="M83.8 100.3C86.1748 100.3 88.1 98.3748 88.1 96C88.1 93.6251 86.1748 91.7 83.8 91.7C81.4252 91.7 79.5 93.6251 79.5 96C79.5 98.3748 81.4252 100.3 83.8 100.3Z" fill="#78BDC4"/>
<path d="M46.8 59.1L51.6 57.1" stroke="#274D5C" stroke-width="1.3793" stroke-miterlimit="10" stroke-linecap="round" stroke-linejoin="round"/>
<path d="M51.5 61.1L46.8 59.1" stroke="#274D5C" stroke-width="1.3793" stroke-miterlimit="10" stroke-linecap="round" stroke-linejoin="round"/>
</g>
<defs>
<clipPath id="clip0">
<rect x="29" y="29" width="68.8" height="86.8" fill="white"/>
</clipPath>
</defs>
</svg>
