<svg width="195" height="24" viewBox="0 0 195 24" fill="none" xmlns="http://www.w3.org/2000/svg">
<path opacity="0.3" d="M195 0H0V24H195V0Z" fill="#FAF2EF"/>
<path d="M13.205 15.63H8.21L7.19 18H4.835L9.74 7.32H11.63L16.535 18H14.225L13.205 15.63ZM12.44 13.845L10.715 9.84L8.99 13.845H12.44ZM29.7018 7.32V18H27.9618L22.6368 11.19V18H20.4468V7.32H22.1718L27.4968 14.115V7.32H29.7018ZM44.0983 7.32V18H42.3583L37.0333 11.19V18H34.8433V7.32H36.5683L41.8933 14.115V7.32H44.0983ZM56.3798 15.63H51.3848L50.3648 18H48.0098L52.9148 7.32H54.8048L59.7098 18H57.3998L56.3798 15.63ZM55.6148 13.845L53.8898 9.84L52.1648 13.845H55.6148ZM74.5754 18.135C73.7654 18.135 72.9854 18.03 72.2354 17.82C71.4954 17.6 70.8804 17.295 70.3904 16.905L71.1404 15.225C72.1704 15.945 73.3204 16.305 74.5904 16.305C75.2704 16.305 75.7904 16.2 76.1504 15.99C76.5204 15.77 76.7054 15.465 76.7054 15.075C76.7054 14.735 76.5354 14.47 76.1954 14.28C75.8654 14.08 75.2804 13.89 74.4404 13.71C73.5004 13.52 72.7504 13.29 72.1904 13.02C71.6404 12.74 71.2354 12.405 70.9754 12.015C70.7254 11.615 70.6004 11.12 70.6004 10.53C70.6004 9.89 70.7754 9.315 71.1254 8.805C71.4854 8.295 71.9854 7.9 72.6254 7.62C73.2654 7.33 74.0054 7.185 74.8454 7.185C75.6054 7.185 76.3354 7.295 77.0354 7.515C77.7354 7.735 78.2954 8.035 78.7154 8.415L77.9654 10.095C77.0254 9.375 75.9904 9.015 74.8604 9.015C74.2604 9.015 73.7804 9.135 73.4204 9.375C73.0604 9.615 72.8804 9.94 72.8804 10.35C72.8804 10.59 72.9454 10.79 73.0754 10.95C73.2154 11.11 73.4454 11.255 73.7654 11.385C74.0854 11.505 74.5404 11.625 75.1304 11.745C76.5004 12.045 77.4854 12.435 78.0854 12.915C78.6954 13.395 79.0004 14.05 79.0004 14.88C79.0004 15.88 78.6104 16.675 77.8304 17.265C77.0504 17.845 75.9654 18.135 74.5754 18.135ZM93.2388 7.32V18H90.9438V13.515H85.9938V18H83.6988V7.32H85.9938V11.64H90.9438V7.32H93.2388ZM98.3882 7.32H105.753V9.135H100.668V11.655H105.438V13.485H100.668V16.185H105.753V18H98.3882V7.32ZM110.368 7.32H112.708V16.095H117.478V18H110.368V7.32ZM121.908 7.32H129.273V9.135H124.188V11.655H128.958V13.485H124.188V16.185H129.273V18H121.908V7.32ZM137.476 18.135C136.666 18.135 135.886 18.03 135.136 17.82C134.396 17.6 133.781 17.295 133.291 16.905L134.041 15.225C135.071 15.945 136.221 16.305 137.491 16.305C138.171 16.305 138.691 16.2 139.051 15.99C139.421 15.77 139.606 15.465 139.606 15.075C139.606 14.735 139.436 14.47 139.096 14.28C138.766 14.08 138.181 13.89 137.341 13.71C136.401 13.52 135.651 13.29 135.091 13.02C134.541 12.74 134.136 12.405 133.876 12.015C133.626 11.615 133.501 11.12 133.501 10.53C133.501 9.89 133.676 9.315 134.026 8.805C134.386 8.295 134.886 7.9 135.526 7.62C136.166 7.33 136.906 7.185 137.746 7.185C138.506 7.185 139.236 7.295 139.936 7.515C140.636 7.735 141.196 8.035 141.616 8.415L140.866 10.095C139.926 9.375 138.891 9.015 137.761 9.015C137.161 9.015 136.681 9.135 136.321 9.375C135.961 9.615 135.781 9.94 135.781 10.35C135.781 10.59 135.846 10.79 135.976 10.95C136.116 11.11 136.346 11.255 136.666 11.385C136.986 11.505 137.441 11.625 138.031 11.745C139.401 12.045 140.386 12.435 140.986 12.915C141.596 13.395 141.901 14.05 141.901 14.88C141.901 15.88 141.511 16.675 140.731 17.265C139.951 17.845 138.866 18.135 137.476 18.135ZM148.839 9.225H145.494V7.32H154.554V9.225H151.209V18H148.839V9.225ZM158.798 7.32H161.138V18H158.798V7.32ZM170.811 18.135C169.311 18.135 168.171 17.75 167.391 16.98C166.611 16.21 166.221 15.08 166.221 13.59V7.32H168.516V13.695C168.516 14.545 168.711 15.195 169.101 15.645C169.501 16.085 170.071 16.305 170.811 16.305C171.551 16.305 172.116 16.085 172.506 15.645C172.896 15.195 173.091 14.545 173.091 13.695V7.32H175.401V13.59C175.401 15.07 175.006 16.2 174.216 16.98C173.436 17.75 172.301 18.135 170.811 18.135ZM187.462 18L182.812 13.065V18H180.472V7.32H182.812V12.015L187.297 7.32H190.087L185.122 12.42L190.282 18H187.462Z" fill="#012C3D"/>
</svg>
