<svg width="413" height="453" viewBox="0 0 413 453" fill="none" xmlns="http://www.w3.org/2000/svg">
<path d="M337 30H59V402H337V30Z" stroke="#78BDC4" stroke-width="10" stroke-miterlimit="10"/>
<path d="M326 29H50V409H326V29Z" stroke="#012C3D" stroke-width="2" stroke-miterlimit="10"/>
<path d="M48.1615 412.717C47.5434 412.615 46.8284 412.66 46.3882 411.844C45.8405 410.895 46.5396 410.429 46.8195 409.709C47.1048 409.129 47.1805 408.421 47.4604 407.701C48.1067 405.833 48.9132 405.501 50.2779 406.4C51.331 407.177 51.5776 408.286 50.8292 410.161C50.2693 411.601 49.3818 412.5 48.1615 412.717Z" fill="#012C3D"/>
<path d="M20.5729 356.508C19.9548 356.406 19.2398 356.451 18.7996 355.635C18.2519 354.685 18.9509 354.219 19.2309 353.499C19.5162 352.919 19.5919 352.211 19.8718 351.491C20.518 349.623 21.3245 349.292 22.6893 350.19C23.7424 350.968 23.9889 352.077 23.2406 353.951C22.6807 355.392 21.7932 356.291 20.5729 356.508Z" fill="#012C3D"/>
<path d="M6.55075 411.018C6.56301 408.623 7.41052 406.599 8.43469 406.535C9.56127 406.464 10.4389 407.958 10.5079 409.785C10.485 411.899 9.51388 413.368 8.07474 413.317C6.73802 413.259 6.58788 412.001 6.55075 411.018Z" fill="#012C3D"/>
<path d="M36.7766 378.05C36.6746 378.056 36.1701 378.228 35.757 378.114C34.8235 377.751 33.7828 377.255 33.8214 375.568C33.8653 374.021 34.6493 373.13 35.6584 372.786C36.968 372.283 39.0056 374.822 38.8755 376.796C38.8105 377.782 38.3113 378.094 36.7766 378.05Z" fill="#012C3D"/>
<path d="M21.8283 415.969C21.9078 418.075 21.3307 419.097 20.1024 419.173C18.7717 419.257 17.8028 418.05 17.9386 416.212C17.9986 415.082 17.6226 413.276 19.1527 413.04C20.5752 412.669 21.6518 414.009 21.8283 415.969Z" fill="#012C3D"/>
<path d="M29.9261 423.605C28.7006 423.682 27.734 422.477 27.6706 420.795C27.6283 419.673 29.0966 417.894 30.0157 417.837C30.9347 417.779 32.1162 419.251 32.169 420.654C32.2325 422.336 31.3557 423.516 29.9261 423.605Z" fill="#012C3D"/>
<path d="M42.9209 418.527C43.0163 421.055 42.1531 422.658 40.7198 422.747C39.5936 422.818 38.8345 421.739 38.7815 420.335C38.7285 418.93 40.4495 415.585 41.1821 415.962C42.2165 416.178 42.8732 417.263 42.9209 418.527Z" fill="#012C3D"/>
<path d="M8.53237 373.875C8.617 376.12 7.86841 377.994 6.9436 377.912C5.71229 377.848 4.23432 376.675 4.19201 375.553C4.12854 373.87 5.49543 372.097 6.82362 372.014C7.84531 371.95 8.49005 372.753 8.53237 373.875Z" fill="#012C3D"/>
<path d="M65.5408 354.75C66.9715 354.66 67.6216 355.604 67.6851 357.288C67.6358 358.697 66.4783 360.597 65.5586 360.655C64.5367 360.719 63.4408 358.819 63.372 356.995C63.2063 355.318 63.8036 354.859 65.5408 354.75Z" fill="#012C3D"/>
<path d="M71.5077 415.896C71.3627 414.778 71.7411 413.909 72.1247 413.181C72.6976 412.018 73.5233 412.107 74.2571 412.484C74.883 412.727 75.1252 413.698 75.0545 414.547C74.9732 415.116 74.7894 415.691 74.8159 416.394C74.8477 417.237 75.5055 418.323 74.7983 418.649C73.8912 419.128 72.8445 418.63 71.9976 417.978C71.6793 417.716 71.6368 416.592 71.5077 415.896Z" fill="#012C3D"/>
<path d="M79.6813 391.633C79.7343 393.038 78.6869 395.216 77.8672 395.267C77.0529 395.459 75.8463 393.422 75.8905 391.87C75.9293 390.178 76.6959 388.722 77.7257 388.798C78.7503 388.734 79.623 390.088 79.6813 391.633Z" fill="#012C3D"/>
<path d="M56.8349 432.832C57.6537 432.78 58.6279 434.127 58.7832 435.525C58.9385 436.923 57.5904 439.259 56.5668 439.323C55.748 439.374 54.7686 437.887 54.7209 436.623C54.6467 434.657 55.6067 432.908 56.8349 432.832Z" fill="#012C3D"/>
<path d="M56.0511 401.143C56.0087 400.019 56.4889 399.144 57.0768 398.404C57.6594 397.523 58.1874 397.912 58.8124 398.154C59.4375 398.397 59.6635 398.946 59.6953 399.789C59.7642 401.615 58.7119 403.651 57.4937 404.009C56.5773 404.207 55.9205 403.122 56.0511 401.143Z" fill="#012C3D"/>
<path d="M57.8308 348.342C57.8886 349.614 57.6304 350.619 57.1636 351.494C56.514 352.803 55.9013 352.695 55.2308 351.314C54.9966 350.618 54.6677 350.069 54.4335 349.374C54.079 348.26 53.4149 347.02 54.2859 346.124C54.7719 345.673 55.3397 344.793 56.1738 345.315C57.21 345.826 57.8612 346.783 57.8308 348.342Z" fill="#012C3D"/>
<path d="M57.6489 375.948C56.6237 376.012 55.3139 373.981 55.2502 372.295C55.1919 370.749 55.9696 369.574 56.9948 369.51C57.9174 369.452 59.0063 371.074 58.8543 372.492C58.7023 373.91 58.7607 375.456 57.6489 375.948Z" fill="#012C3D"/>
<path d="M11.5543 441.734C11.4394 444.135 10.6671 445.451 9.32384 445.253C7.67305 445.075 8.21914 443.21 8.16609 441.804C8.18902 439.69 8.67504 438.956 9.91048 439.019C11.0434 439.09 11.5931 440.041 11.5543 441.734Z" fill="#012C3D"/>
<path d="M36.6694 348.308C36.0729 348.767 35.3743 349.232 34.7725 349.551C33.5636 350.048 32.8174 349.252 32.3564 347.876C31.8953 346.5 32.5727 345.474 33.2607 344.728C34.1476 343.83 35.1946 344.467 35.3442 345.722C35.4939 346.977 36.9174 346.747 36.6694 348.308Z" fill="#012C3D"/>
<path d="M52.9428 418.592C53.8641 418.535 54.8331 419.741 54.886 421.145C54.9443 422.69 53.8872 424.586 52.9659 424.644C52.147 424.695 51.1674 423.208 51.1144 421.804C51.0614 420.399 52.0268 418.791 52.9428 418.592Z" fill="#012C3D"/>
<path d="M82.4963 377.748C82.5653 379.575 81.7158 381.601 80.7918 381.659C80.0732 381.704 79.2961 380.202 79.2377 378.656C79.1686 376.828 80.0288 375.083 81.0607 375.16C82.1953 375.23 82.3511 376.629 82.4963 377.748Z" fill="#012C3D"/>
<path d="M43.9927 354.306C43.4806 354.338 43.1681 354.217 42.8344 353.534C42.3877 352.576 42.2429 351.459 42.5077 350.316C42.8643 348.886 44.358 347.666 45.3008 348.17C46.2437 348.675 46.302 350.22 45.6487 351.95C45.0008 353.821 44.7095 354.261 43.9927 354.306Z" fill="#012C3D"/>
<path d="M43.9096 374.601C43.7488 373.062 44.1268 372.193 45.2486 371.982C46.2679 371.778 47.4533 373.253 47.5063 374.658C47.6565 375.916 46.609 378.093 45.8918 378.138C44.9643 378.055 44.081 376.421 43.9096 374.601Z" fill="#012C3D"/>
<path d="M67.6607 370.215C68.4797 370.164 69.4594 371.651 69.6094 372.909C69.7595 374.166 68.3086 376.509 67.4737 376.139C66.5364 375.775 65.8904 374.971 65.9398 373.56C65.9733 371.728 66.7393 370.273 67.6607 370.215Z" fill="#012C3D"/>
<path d="M31.2746 388.323C32.3686 387.554 33.5697 386.918 34.813 387.401C36.1581 387.878 36.5164 389.257 35.6524 390.713C34.3003 392.761 32.323 391.763 31.2746 388.323Z" fill="#012C3D"/>
<path d="M45.4541 432.165C46.2682 431.973 47.2432 433.32 47.3986 434.719C47.5594 436.258 46.7064 438.141 45.7845 438.199C44.7601 438.263 44.1137 437.459 43.8558 436.067C43.7004 434.668 44.6399 432.357 45.4541 432.165Z" fill="#012C3D"/>
<path d="M34.5126 435.403C33.6781 435.033 32.7464 434.81 32.6829 433.125C32.6352 431.861 33.7785 429.538 34.5972 429.487C35.4159 429.436 36.3952 430.922 36.4428 432.186C36.4041 433.877 35.536 435.339 34.5126 435.403Z" fill="#012C3D"/>
<path d="M25.1189 385.771C25.2907 387.593 25.1225 388.59 24.3219 389.204C23.7216 389.664 23.3 389.408 22.8679 388.871C22.1169 388.073 21.7716 387.108 22.1399 385.957C22.5083 384.806 22.742 382.819 23.7746 382.895C25.0126 382.959 24.9843 384.934 25.1189 385.771Z" fill="#012C3D"/>
<path d="M39.7936 403.396C39.739 404.665 38.3776 406.578 37.453 406.495C36.6358 406.546 35.519 404.085 35.7726 402.664C36.0209 401.102 37.0477 401.178 37.9671 401.12C38.9992 401.337 39.7513 402.274 39.7936 403.396Z" fill="#012C3D"/>
<path d="M26.8819 405.642C25.9611 405.699 25.3208 405.036 25.0739 403.926C24.811 402.394 25.9539 400.071 26.9769 400.007C28.1023 399.937 28.5432 400.754 28.6985 402.151C28.8644 403.829 28.0019 405.431 26.8819 405.642Z" fill="#012C3D"/>
<path d="M40.7574 446.693C40.7998 447.817 39.3804 451.003 38.766 451.041C37.8444 451.099 37.3059 450.428 37.1505 449.03C36.9792 447.211 38.1285 445.027 39.2549 444.957C39.9717 444.912 40.6179 445.716 40.7574 446.693Z" fill="#012C3D"/>
<path d="M86.8921 393.375C86.6821 393.247 86.4721 393.12 86.2568 392.852C85.3903 391.639 85.4025 389.245 86.389 388.198C87.176 387.305 87.9948 387.254 88.8507 388.185C89.4966 388.989 89.329 389.985 88.849 390.86C88.3744 391.875 87.905 393.03 86.8921 393.375Z" fill="#012C3D"/>
<path d="M46.8745 391.972C46.7234 393.384 46.0414 394.269 45.1451 394.887C44.3506 395.498 43.4384 395.695 42.586 394.766C42.1571 394.232 42.1307 393.532 42.4101 392.812C42.8829 391.8 45.2662 389.967 45.8937 390.349C46.4087 390.457 46.7356 390.998 46.8745 391.972Z" fill="#012C3D"/>
<path d="M76.0202 355.89C76.9393 355.833 78.2122 357.018 78.2545 358.139C78.2967 359.261 77.3285 360.727 76.4148 360.925C75.399 361.129 74.4377 360.065 74.2827 358.669C74.2404 357.547 75.1065 356.088 76.0202 355.89Z" fill="#012C3D"/>
<path d="M6.66747 394.541C6.72047 395.946 6.34803 396.955 5.22181 397.025C4.19797 397.089 3.21821 395.602 3.14932 393.776C3.10162 392.512 3.58174 391.637 4.4979 391.439C5.51644 391.235 6.60387 392.856 6.66747 394.541Z" fill="#012C3D"/>
<path d="M50.4049 366.149C49.6882 366.193 49.4622 365.644 49.3281 364.808C49.1621 363.129 50.1982 360.671 51.0173 360.62C51.9388 360.563 52.5849 361.367 52.6326 362.631C52.6962 364.316 51.6335 366.072 50.4049 366.149Z" fill="#012C3D"/>
<path d="M22.0146 368.824C23.0209 368.339 23.2571 369.168 23.2995 370.291C23.3683 372.115 22.614 373.85 21.6834 373.627C20.7528 373.404 20.0055 372.606 19.8503 371.21C19.7921 369.666 20.4812 368.92 22.0146 368.824Z" fill="#012C3D"/>
<path d="M31.1646 445.498C31.2069 446.621 30.7324 447.636 29.7092 447.7C28.6859 447.764 27.9432 447.107 27.8902 445.703C27.7349 444.305 28.5975 442.703 29.3138 442.658C30.1324 442.607 31.101 443.813 31.1646 445.498Z" fill="#012C3D"/>
<path d="M55.0729 390.244C53.502 389.496 52.1682 389.58 51.9753 387.196C51.9275 385.931 52.2035 385.069 53.0031 384.455C53.6027 383.995 54.229 384.238 54.7685 384.909C55.2055 385.586 55.3346 386.282 54.8429 386.877C53.854 387.925 54.7067 388.717 55.0729 390.244Z" fill="#012C3D"/>
<path d="M83.1762 406.182C83.148 408.154 82.2851 409.756 81.2509 409.54C80.4268 409.45 79.8885 408.78 79.9484 407.651C79.8902 406.106 80.9525 404.35 81.9761 404.286C82.8973 404.229 83.2361 405.052 83.1762 406.182Z" fill="#012C3D"/>
<path d="M63.8744 414.007C63.9168 415.13 63.0488 416.592 62.3326 416.636C61.6163 416.681 60.5401 415.341 60.4977 414.218C60.4448 412.814 61.318 411.493 62.2389 411.435C62.9552 411.391 63.8267 412.743 63.8744 414.007Z" fill="#012C3D"/>
<path d="M20.5747 435.302C20.6224 436.566 19.7488 437.888 18.9299 437.939C18.1109 437.99 17.3308 436.35 17.3802 434.939C17.4295 433.528 18.0172 432.788 18.9438 432.871C19.9728 432.947 20.3223 434.051 20.5747 435.302Z" fill="#012C3D"/>
<path d="M13.7679 395.192C14.4342 393.886 15.2343 393.415 16.2911 394.332C17.2406 395.115 16.9769 396.254 16.6059 397.26C16.1488 398.693 15.1289 398.757 14.1091 398.821C13.3952 398.865 12.8747 398.617 12.6338 397.649C12.479 396.255 12.8553 395.389 13.7679 395.192C13.6764 395.478 13.4777 395.631 13.3916 396.058C13.2035 396.491 13.2246 397.051 13.5411 397.312C13.8576 397.573 14.2656 397.547 14.5557 397.108C14.8458 396.669 14.6207 396.121 14.4062 395.854C14.1864 395.446 13.9771 395.319 13.7679 395.192Z" fill="#012C3D"/>
<path d="M68.164 399.369C69.4933 399.286 70.4506 400.211 70.4982 401.474C70.6534 402.871 69.8831 404.185 68.8605 404.249C67.838 404.313 67.0799 403.235 67.124 401.685C67.0763 400.422 67.4536 399.554 68.164 399.369Z" fill="#012C3D"/>
<path d="M67.8681 430.509C67.776 430.797 67.8079 431.64 67.5212 432.222C67.1424 433.091 66.4504 433.839 65.7159 433.462C64.9813 433.085 64.9442 432.101 64.9017 430.976C64.8485 429.57 65.9671 429.219 66.1246 427.941C66.206 427.372 66.9353 427.608 67.2592 428.011C67.7937 428.541 67.9229 429.238 67.8681 430.509Z" fill="#012C3D"/>
<path d="M38.56 361.004C39.2953 361.52 39.6928 361.214 40.0745 360.488C40.2627 360.055 40.5582 359.756 40.8854 360.297C40.998 360.571 41.1159 360.985 41.1264 361.265C41.1529 361.966 38.7184 365.208 38.203 365.1C37.3762 364.871 37.1352 363.903 36.9962 362.928C36.7552 361.96 37.0348 361.24 37.7385 360.915C38.0445 360.896 38.3559 361.017 38.56 361.004Z" fill="#012C3D"/>
<path d="M65.4101 387.581C65.4418 388.423 64.1775 390.189 63.57 390.367C62.4465 390.437 61.7914 389.354 61.7227 387.531C61.6645 385.988 62.3689 385.663 63.186 385.612C64.202 385.408 65.3731 386.6 65.4101 387.581Z" fill="#012C3D"/>
<path d="M28.6107 365.609C27.8992 365.794 26.9247 364.447 26.877 363.183C26.8346 362.06 27.7949 360.31 28.6141 360.259C29.4332 360.208 29.9717 360.878 30.1165 361.995C30.2719 363.393 29.4298 365.558 28.6107 365.609Z" fill="#012C3D"/>
<path d="M20.2661 446.235C19.712 447.814 19.6893 449.923 18.0357 449.464C17.2089 449.235 16.7586 448.14 17.0171 446.86C17.3724 445.433 18.0813 445.248 20.2661 446.235Z" fill="#012C3D"/>
<path d="M8.446 425.029C8.22089 425.837 7.65356 426.139 6.84507 425.958C5.63234 425.686 4.76129 424.525 5.11848 423.532C5.37461 422.517 6.22961 422.386 7.0381 422.568C7.84659 422.749 8.61657 423.887 8.446 425.029Z" fill="#012C3D"/>
<path d="M319.443 163.047C318.825 162.945 318.11 162.99 317.669 162.174C317.122 161.224 317.821 160.759 318.101 160.038C318.386 159.458 318.462 158.75 318.742 158.03C319.388 156.162 320.194 155.831 321.559 156.729C322.612 157.507 322.859 158.616 322.11 160.49C321.551 161.931 320.663 162.83 319.443 163.047Z" fill="#012C3D"/>
<path d="M291.854 106.837C291.236 106.735 290.521 106.78 290.081 105.964C289.533 105.014 290.232 104.549 290.512 103.828C290.797 103.248 290.873 102.541 291.153 101.82C291.799 99.9525 292.606 99.6209 293.971 100.519C295.024 101.297 295.27 102.406 294.522 104.28C293.962 105.721 293.074 106.62 291.854 106.837Z" fill="#012C3D"/>
<path d="M277.832 161.347C277.844 158.953 278.692 156.928 279.716 156.864C280.843 156.794 281.72 158.288 281.789 160.114C281.766 162.228 280.795 163.697 279.356 163.646C278.019 163.589 277.869 162.331 277.832 161.347Z" fill="#012C3D"/>
<path d="M308.058 128.38C307.956 128.386 307.451 128.558 307.038 128.443C306.105 128.081 305.064 127.584 305.103 125.898C305.147 124.351 305.931 123.46 306.94 123.116C308.249 122.613 310.287 125.152 310.157 127.125C310.092 128.112 309.593 128.424 308.058 128.38Z" fill="#012C3D"/>
<path d="M293.11 166.298C293.189 168.405 292.612 169.426 291.384 169.503C290.053 169.586 289.084 168.38 289.22 166.541C289.28 165.412 288.904 163.605 290.434 163.369C291.856 162.999 292.933 164.339 293.11 166.298Z" fill="#012C3D"/>
<path d="M301.207 173.934C299.982 174.011 299.015 172.807 298.952 171.124C298.91 170.002 300.378 168.224 301.297 168.166C302.216 168.109 303.397 169.581 303.45 170.983C303.514 172.666 302.637 173.845 301.207 173.934Z" fill="#012C3D"/>
<path d="M314.202 168.857C314.298 171.385 313.434 172.987 312.001 173.077C310.875 173.147 310.116 172.068 310.063 170.664C310.01 169.26 311.731 165.914 312.463 166.291C313.498 166.508 314.154 167.593 314.202 168.857Z" fill="#012C3D"/>
<path d="M279.814 124.205C279.898 126.449 279.15 128.324 278.225 128.241C276.994 128.177 275.516 127.005 275.473 125.882C275.41 124.199 276.777 122.426 278.105 122.343C279.127 122.279 279.771 123.083 279.814 124.205Z" fill="#012C3D"/>
<path d="M336.822 105.079C338.253 104.99 338.903 105.933 338.966 107.617C338.917 109.026 337.76 110.927 336.84 110.984C335.818 111.048 334.722 109.148 334.653 107.324C334.488 105.647 335.085 105.188 336.822 105.079Z" fill="#012C3D"/>
<path d="M342.789 166.225C342.644 165.107 343.022 164.238 343.406 163.51C343.979 162.347 344.805 162.437 345.538 162.814C346.164 163.056 346.407 164.027 346.336 164.877C346.254 165.445 346.071 166.02 346.097 166.723C346.129 167.566 346.787 168.652 346.08 168.978C345.172 169.457 344.126 168.959 343.279 168.308C342.961 168.046 342.918 166.921 342.789 166.225Z" fill="#012C3D"/>
<path d="M350.963 141.963C351.016 143.367 349.968 145.545 349.148 145.596C348.334 145.788 347.128 143.751 347.172 142.199C347.211 140.507 347.977 139.051 349.007 139.128C350.032 139.064 350.904 140.417 350.963 141.963Z" fill="#012C3D"/>
<path d="M328.116 183.161C328.935 183.11 329.909 184.457 330.065 185.854C330.22 187.252 328.872 189.588 327.848 189.652C327.029 189.704 326.05 188.217 326.002 186.953C325.928 184.987 326.888 183.238 328.116 183.161Z" fill="#012C3D"/>
<path d="M327.332 151.472C327.29 150.349 327.77 149.474 328.358 148.733C328.941 147.852 329.469 148.241 330.094 148.484C330.719 148.726 330.945 149.275 330.977 150.118C331.045 151.944 329.993 153.981 328.775 154.338C327.859 154.537 327.202 153.451 327.332 151.472Z" fill="#012C3D"/>
<path d="M329.112 98.6716C329.17 99.9433 328.912 100.949 328.445 101.823C327.795 103.133 327.183 103.024 326.512 101.643C326.278 100.948 325.949 100.399 325.715 99.703C325.36 98.5889 324.696 97.3496 325.567 96.4532C326.053 96.0023 326.621 95.1222 327.455 95.6441C328.491 96.1553 329.142 97.112 329.112 98.6716Z" fill="#012C3D"/>
<path d="M328.93 126.277C327.905 126.341 326.595 124.31 326.531 122.624C326.473 121.079 327.251 119.903 328.276 119.839C329.199 119.781 330.288 121.404 330.136 122.822C329.984 124.24 330.042 125.785 328.93 126.277Z" fill="#012C3D"/>
<path d="M282.835 192.063C282.721 194.465 281.948 195.781 280.605 195.583C278.954 195.404 279.5 193.539 279.447 192.134C279.47 190.02 279.956 189.285 281.192 189.349C282.325 189.419 282.874 190.37 282.835 192.063Z" fill="#012C3D"/>
<path d="M307.951 98.6374C307.354 99.0963 306.656 99.5615 306.054 99.8801C304.845 100.377 304.099 99.581 303.638 98.205C303.177 96.8289 303.854 95.803 304.542 95.0575C305.429 94.159 306.476 94.7959 306.626 96.051C306.775 97.3061 308.199 97.0765 307.951 98.6374Z" fill="#012C3D"/>
<path d="M324.224 168.922C325.145 168.864 326.114 170.07 326.167 171.475C326.226 173.02 325.168 174.915 324.247 174.973C323.428 175.024 322.449 173.537 322.396 172.133C322.343 170.729 323.308 169.12 324.224 168.922Z" fill="#012C3D"/>
<path d="M353.778 128.077C353.847 129.905 352.997 131.931 352.073 131.988C351.354 132.033 350.577 130.531 350.519 128.985C350.45 127.157 351.31 125.413 352.342 125.489C353.477 125.559 353.632 126.959 353.778 128.077Z" fill="#012C3D"/>
<path d="M315.274 104.635C314.762 104.667 314.449 104.546 314.116 103.863C313.669 102.905 313.524 101.788 313.789 100.645C314.146 99.2153 315.639 97.9956 316.582 98.4998C317.525 99.004 317.583 100.549 316.93 102.279C316.282 104.15 315.991 104.591 315.274 104.635Z" fill="#012C3D"/>
<path d="M315.191 124.93C315.03 123.391 315.408 122.523 316.53 122.312C317.549 122.107 318.735 123.582 318.788 124.987C318.938 126.245 317.89 128.423 317.173 128.468C316.246 128.385 315.362 126.75 315.191 124.93Z" fill="#012C3D"/>
<path d="M338.942 120.544C339.761 120.493 340.741 121.98 340.891 123.238C341.041 124.496 339.59 126.838 338.755 126.468C337.818 126.105 337.172 125.3 337.221 123.89C337.255 122.058 338.021 120.602 338.942 120.544Z" fill="#012C3D"/>
<path d="M302.556 138.653C303.65 137.884 304.851 137.248 306.094 137.731C307.439 138.207 307.798 139.587 306.934 141.043C305.582 143.09 303.604 142.092 302.556 138.653Z" fill="#012C3D"/>
<path d="M316.735 182.494C317.549 182.303 318.524 183.65 318.68 185.048C318.841 186.587 317.988 188.471 317.066 188.528C316.041 188.592 315.395 187.788 315.137 186.396C314.982 184.998 315.921 182.686 316.735 182.494Z" fill="#012C3D"/>
<path d="M305.794 185.733C304.959 185.363 304.028 185.139 303.964 183.455C303.916 182.191 305.06 179.868 305.878 179.816C306.697 179.765 307.676 181.252 307.724 182.516C307.685 184.207 306.817 185.669 305.794 185.733Z" fill="#012C3D"/>
<path d="M296.4 136.1C296.572 137.922 296.404 138.919 295.603 139.533C295.003 139.993 294.581 139.738 294.149 139.201C293.398 138.402 293.053 137.437 293.421 136.286C293.79 135.136 294.023 133.148 295.056 133.224C296.294 133.288 296.266 135.263 296.4 136.1Z" fill="#012C3D"/>
<path d="M311.075 153.725C311.02 154.994 309.659 156.907 308.734 156.824C307.917 156.875 306.8 154.415 307.054 152.993C307.302 151.431 308.329 151.507 309.248 151.45C310.28 151.666 311.033 152.603 311.075 153.725Z" fill="#012C3D"/>
<path d="M298.163 155.971C297.243 156.029 296.602 155.365 296.355 154.255C296.092 152.724 297.235 150.401 298.258 150.337C299.384 150.266 299.825 151.083 299.98 152.48C300.146 154.159 299.283 155.76 298.163 155.971Z" fill="#012C3D"/>
<path d="M312.039 197.023C312.081 198.146 310.662 201.332 310.047 201.37C309.126 201.428 308.587 200.758 308.432 199.36C308.26 197.54 309.41 195.357 310.536 195.286C311.253 195.241 311.899 196.046 312.039 197.023Z" fill="#012C3D"/>
<path d="M358.173 143.704C357.963 143.577 357.753 143.449 357.538 143.181C356.672 141.968 356.684 139.575 357.67 138.528C358.457 137.634 359.276 137.583 360.132 138.515C360.778 139.319 360.61 140.314 360.13 141.189C359.656 142.204 359.186 143.359 358.173 143.704Z" fill="#012C3D"/>
<path d="M318.156 142.301C318.005 143.714 317.323 144.599 316.426 145.216C315.632 145.827 314.72 146.025 313.867 145.096C313.438 144.561 313.412 143.861 313.691 143.142C314.164 142.13 316.547 140.296 317.175 140.678C317.69 140.786 318.017 141.327 318.156 142.301Z" fill="#012C3D"/>
<path d="M347.301 106.219C348.221 106.162 349.493 107.347 349.536 108.469C349.578 109.591 348.61 111.057 347.696 111.254C346.68 111.459 345.719 110.394 345.564 108.999C345.522 107.877 346.388 106.417 347.301 106.219Z" fill="#012C3D"/>
<path d="M277.949 144.871C278.002 146.275 277.629 147.284 276.503 147.354C275.479 147.418 274.499 145.931 274.431 144.105C274.383 142.841 274.863 141.967 275.779 141.769C276.798 141.564 277.885 143.185 277.949 144.871Z" fill="#012C3D"/>
<path d="M321.686 116.478C320.969 116.523 320.743 115.974 320.609 115.138C320.443 113.459 321.479 111.001 322.299 110.95C323.22 110.892 323.866 111.696 323.914 112.96C323.977 114.646 322.915 116.401 321.686 116.478Z" fill="#012C3D"/>
<path d="M293.296 119.153C294.302 118.668 294.539 119.497 294.581 120.62C294.65 122.444 293.895 124.179 292.965 123.956C292.034 123.733 291.287 122.936 291.132 121.539C291.073 119.995 291.763 119.249 293.296 119.153Z" fill="#012C3D"/>
<path d="M302.446 195.827C302.488 196.95 302.014 197.965 300.99 198.029C299.967 198.093 299.224 197.436 299.171 196.032C299.016 194.634 299.879 193.032 300.595 192.987C301.414 192.936 302.382 194.142 302.446 195.827Z" fill="#012C3D"/>
<path d="M326.354 140.573C324.783 139.826 323.449 139.909 323.257 137.526C323.209 136.261 323.485 135.398 324.284 134.785C324.884 134.325 325.51 134.567 326.05 135.238C326.487 135.915 326.616 136.612 326.124 137.206C325.135 138.254 325.988 139.046 326.354 140.573Z" fill="#012C3D"/>
<path d="M354.457 156.511C354.429 158.484 353.566 160.086 352.532 159.869C351.708 159.78 351.17 159.11 351.23 157.98C351.171 156.435 352.234 154.68 353.257 154.616C354.178 154.558 354.517 155.381 354.457 156.511Z" fill="#012C3D"/>
<path d="M335.156 164.336C335.198 165.459 334.33 166.921 333.614 166.966C332.898 167.011 331.821 165.671 331.779 164.547C331.726 163.143 332.599 161.822 333.52 161.765C334.236 161.72 335.108 163.073 335.156 164.336Z" fill="#012C3D"/>
<path d="M291.856 185.632C291.904 186.896 291.03 188.217 290.211 188.268C289.392 188.319 288.612 186.679 288.661 185.268C288.711 183.858 289.298 183.117 290.225 183.2C291.254 183.276 291.604 184.381 291.856 185.632Z" fill="#012C3D"/>
<path d="M285.049 145.521C285.715 144.216 286.516 143.744 287.572 144.661C288.522 145.444 288.258 146.584 287.887 147.59C287.43 149.022 286.41 149.086 285.39 149.15C284.676 149.195 284.156 148.946 283.915 147.979C283.76 146.584 284.137 145.718 285.049 145.521C284.958 145.807 284.759 145.96 284.673 146.387C284.485 146.82 284.506 147.38 284.822 147.641C285.139 147.902 285.547 147.877 285.837 147.437C286.127 146.998 285.902 146.45 285.687 146.183C285.468 145.776 285.258 145.648 285.049 145.521Z" fill="#012C3D"/>
<path d="M339.445 149.698C340.775 149.615 341.732 150.54 341.78 151.803C341.935 153.2 341.164 154.514 340.142 154.578C339.119 154.642 338.361 153.564 338.405 152.014C338.358 150.751 338.735 149.883 339.445 149.698Z" fill="#012C3D"/>
<path d="M339.149 180.839C339.057 181.126 339.089 181.97 338.802 182.551C338.424 183.421 337.732 184.168 336.997 183.791C336.263 183.414 336.225 182.43 336.183 181.306C336.13 179.9 337.248 179.548 337.406 178.27C337.487 177.701 338.216 177.938 338.54 178.34C339.075 178.87 339.204 179.567 339.149 180.839Z" fill="#012C3D"/>
<path d="M309.841 111.334C310.576 111.85 310.974 111.544 311.356 110.818C311.544 110.385 311.839 110.085 312.167 110.627C312.279 110.9 312.397 111.314 312.408 111.595C312.434 112.295 310 115.538 309.484 115.429C308.657 115.2 308.416 114.232 308.277 113.258C308.036 112.29 308.316 111.57 309.02 111.245C309.326 111.226 309.637 111.347 309.841 111.334Z" fill="#012C3D"/>
<path d="M336.691 137.911C336.723 138.752 335.459 140.518 334.851 140.697C333.728 140.767 333.073 139.683 333.004 137.86C332.946 136.318 333.65 135.992 334.467 135.941C335.483 135.737 336.654 136.929 336.691 137.911Z" fill="#012C3D"/>
<path d="M299.892 115.938C299.18 116.123 298.206 114.777 298.158 113.513C298.116 112.389 299.076 110.64 299.895 110.588C300.714 110.537 301.253 111.207 301.398 112.325C301.553 113.723 300.711 115.887 299.892 115.938Z" fill="#012C3D"/>
<path d="M291.547 196.564C290.993 198.144 290.971 200.252 289.317 199.794C288.49 199.565 288.04 198.469 288.298 197.189C288.654 195.762 289.363 195.577 291.547 196.564Z" fill="#012C3D"/>
<path d="M279.727 175.358C279.502 176.166 278.935 176.468 278.126 176.287C276.914 176.015 276.043 174.854 276.4 173.861C276.656 172.846 277.511 172.716 278.319 172.897C279.128 173.078 279.898 174.217 279.727 175.358Z" fill="#012C3D"/>
<path d="M332.162 96.4669C358.276 96.4669 379.445 75.3199 379.445 49.2338C379.445 23.1477 358.276 2.00073 332.162 2.00073C306.048 2.00073 284.878 23.1477 284.878 49.2338C284.878 75.3199 306.048 96.4669 332.162 96.4669Z" stroke="#469AA3" stroke-width="2.6906" stroke-miterlimit="10"/>
<path d="M358.762 113.366L371.124 113.396" stroke="#012C3D" stroke-width="2" stroke-miterlimit="10"/>
<path d="M364.928 107.2L364.958 119.562" stroke="#012C3D" stroke-width="2" stroke-miterlimit="10"/>
</svg>
